<svg width="743" height="575" viewBox="0 0 743 575" fill="none" xmlns="http://www.w3.org/2000/svg">
<g clip-path="url(#clip0_2_4)">
<path d="M402.211 574.969C579.012 574.969 722.337 565.7 722.337 554.265C722.337 542.831 579.012 533.562 402.211 533.562C225.41 533.562 82.0842 542.831 82.0842 554.265C82.0842 565.7 225.41 574.969 402.211 574.969Z" fill="#686868"/>
<path d="M209.896 398.293C208.568 392.271 206.804 383.629 205.192 373.188C204.718 370.177 204.263 366.988 203.846 363.692C205.287 363.442 216.743 361.34 221.2 358.347C225.258 355.656 229.62 351.22 229.791 346.231C229.889 345.063 229.722 343.89 229.301 342.787C228.879 341.685 228.214 340.68 227.348 339.837C226.481 338.995 225.435 338.335 224.277 337.902C223.119 337.468 221.876 337.271 220.631 337.322C213.196 337.803 206.33 348.636 204.718 354.712C204.623 355.104 203.96 359.808 203.675 362.231C203.428 360.235 203.182 358.257 202.954 356.191C202.613 353.197 202.347 350.044 202.082 346.979C202.082 345.376 201.911 343.772 201.835 342.151C201.759 340.529 201.835 338.943 201.835 337.304C201.835 334.917 202.025 332.44 202.158 329.981C205.42 329.839 214.96 329.251 219.227 327.22C223.494 325.189 228.71 321.322 229.677 316.529C229.943 315.397 229.953 314.226 229.707 313.09C229.462 311.954 228.966 310.879 228.251 309.934C227.536 308.989 226.619 308.195 225.558 307.603C224.497 307.012 223.316 306.635 222.091 306.498C214.675 305.928 206.122 315.656 203.58 321.429C203.485 321.607 203.087 322.89 202.613 324.405C202.841 321.999 203.049 319.594 203.372 317.171C204.244 310.311 205.382 303.327 206.482 296.325C206.71 294.864 206.918 293.42 207.146 291.959C209.877 291.835 220.232 291.3 224.727 289.18C229.222 287.06 234.21 283.264 235.178 278.489C235.446 277.357 235.459 276.185 235.214 275.048C234.97 273.911 234.474 272.835 233.759 271.889C233.044 270.943 232.125 270.149 231.063 269.558C230 268.967 228.818 268.593 227.591 268.458C220.156 267.888 211.622 277.616 209.061 283.389C209.061 283.585 208.492 285.171 207.961 286.81C208.511 283.015 208.986 279.202 209.346 275.425C210.013 268.912 210.21 262.364 209.934 255.826C210.901 255.826 223.039 255.38 228.046 253.029C232.503 250.944 237.529 247.131 238.497 242.338C238.765 241.207 238.778 240.035 238.533 238.899C238.288 237.764 237.792 236.689 237.077 235.744C236.362 234.8 235.443 234.008 234.381 233.419C233.318 232.83 232.136 232.457 230.91 232.325C223.476 231.737 214.941 241.483 212.38 247.238C212.191 247.648 210.484 253.171 209.972 255.149C209.962 255.072 209.962 254.994 209.972 254.917C209.533 248.518 208.492 242.168 206.861 235.942C205.43 230.374 203.657 224.889 201.551 219.514C199.654 214.525 197.587 210.053 195.728 206.116C194.704 203.978 193.718 202.053 192.789 200.272H192.94C193.073 200.272 192.713 191.808 192.637 191.363C191.613 185.198 185.79 173.831 178.431 172.726C177.204 172.573 175.957 172.665 174.77 172.995C173.584 173.326 172.485 173.888 171.545 174.644C170.606 175.401 169.846 176.335 169.317 177.386C168.788 178.437 168.501 179.581 168.474 180.744C168.171 185.679 172.097 190.508 175.871 193.537C179.645 196.566 189.849 199.523 192.352 200.2C193.282 202.089 194.249 204.102 195.292 206.347C197.056 210.32 199.085 214.81 200.773 219.835C201.247 221.171 201.703 222.632 202.177 224.022C200.868 221.813 199.028 218.802 198.801 218.534C194.875 213.492 184.121 205.92 177.066 208.129C175.902 208.523 174.84 209.144 173.948 209.95C173.057 210.757 172.357 211.731 171.893 212.808C171.43 213.886 171.213 215.044 171.258 216.205C171.303 217.367 171.608 218.506 172.154 219.55C174.297 224.058 180.157 226.677 185.013 227.692C189.868 228.708 200.678 226.908 202.992 226.481C203.979 229.599 204.889 232.824 205.685 236.245C207.119 242.392 207.97 248.647 208.227 254.935C208.227 255.309 208.227 255.683 208.227 256.057C207.772 254.846 204.813 248.449 204.566 248.022C201.247 242.677 191.442 233.964 184.159 235.425C182.954 235.699 181.825 236.208 180.844 236.919C179.862 237.631 179.052 238.529 178.465 239.554C177.878 240.58 177.528 241.71 177.437 242.871C177.346 244.032 177.517 245.199 177.938 246.294C179.55 250.98 185.088 254.169 189.773 255.701C195.178 257.483 207.753 256.343 208.208 256.307C208.311 262.616 207.975 268.925 207.203 275.193C206.653 279.844 205.894 284.529 205.079 289.215C204.453 287.665 201.722 281.714 201.456 281.305C198.156 275.959 188.351 267.265 181.068 268.726C179.865 269 178.738 269.508 177.758 270.219C176.779 270.929 175.969 271.825 175.383 272.848C174.796 273.872 174.445 275 174.353 276.159C174.26 277.318 174.429 278.482 174.847 279.576C176.459 284.28 181.978 287.452 186.682 289.002C191.954 290.783 203.997 289.697 205.022 289.607C204.642 291.728 204.282 293.866 203.903 296.004C202.632 302.953 201.342 309.937 200.299 316.85C199.92 319.255 199.654 321.625 199.389 323.977C198.384 321.679 196.468 317.545 196.259 317.206C192.94 311.861 183.135 303.149 175.852 304.627C174.65 304.901 173.522 305.41 172.543 306.12C171.563 306.831 170.754 307.727 170.167 308.75C169.58 309.774 169.229 310.901 169.137 312.061C169.045 313.22 169.213 314.384 169.631 315.478C171.243 320.182 176.762 323.353 181.466 324.903C186.169 326.454 196.316 325.777 199.18 325.563C198.744 329.518 198.421 333.456 198.289 337.34C198.289 339.015 198.118 340.743 198.289 342.347C198.459 343.95 198.289 345.589 198.403 347.175C198.63 350.471 198.801 353.536 199.085 356.6C199.218 358.151 199.37 359.612 199.521 361.108C198.877 358.649 197.777 354.747 197.625 354.409C195.216 348.583 186.928 338.658 179.474 339.068C178.242 339.172 177.047 339.517 175.966 340.082C174.884 340.646 173.941 341.418 173.198 342.347C172.454 343.276 171.926 344.341 171.648 345.473C171.37 346.606 171.349 347.78 171.585 348.921C172.419 353.785 177.274 357.723 181.75 359.914C186.606 362.32 198.27 363.033 199.692 363.122C200.072 366.792 200.489 370.373 200.925 373.705C202.328 384.289 203.903 393.037 205.097 399.166C206.292 405.295 207.146 408.769 207.146 408.769C207.203 409.105 207.334 409.427 207.53 409.712C207.726 409.998 207.983 410.243 208.285 410.431C208.587 410.619 208.927 410.746 209.284 410.804C209.641 410.862 210.007 410.849 210.358 410.768C210.71 410.686 211.04 410.537 211.326 410.329C211.613 410.122 211.851 409.861 212.026 409.562C212.2 409.264 212.306 408.935 212.337 408.596C212.369 408.257 212.326 407.916 212.21 407.594C212.21 407.594 211.224 404.333 209.896 398.293Z" fill="#425C50"/>
<path d="M203.523 225.18C203.523 225.18 216.041 221.617 220.384 217.929C224.177 214.828 227.97 209.893 227.42 204.957C227.361 203.797 227.042 202.662 226.484 201.625C225.927 200.589 225.143 199.674 224.184 198.941C223.224 198.208 222.112 197.674 220.918 197.372C219.724 197.07 218.476 197.008 217.255 197.189C209.934 198.472 204.415 209.982 203.58 216.182C203.504 216.717 203.391 225.216 203.523 225.18Z" fill="#425C50"/>
<path d="M210.123 410.765C210.432 410.966 210.692 411.226 210.884 411.529C211.076 411.832 211.197 412.171 211.237 412.522C211.278 412.872 211.238 413.227 211.12 413.562C211.001 413.897 210.808 414.204 210.552 414.462C210.296 414.721 209.984 414.924 209.637 415.059C209.29 415.194 208.917 415.258 208.541 415.245C208.166 415.232 207.798 415.144 207.462 414.986C207.127 414.828 206.831 414.603 206.596 414.328C206.596 414.328 203.827 411.834 199.256 407.362C194.685 402.89 188.199 396.386 180.821 388.297C178.488 385.732 176.06 382.952 173.576 380.101C172.343 380.761 162.196 386.213 156.734 386.712C151.784 387.157 145.355 386.444 141.789 382.81C140.922 381.982 140.25 380.992 139.817 379.904C139.383 378.816 139.198 377.655 139.273 376.496C139.348 375.337 139.682 374.205 140.253 373.175C140.823 372.145 141.618 371.239 142.586 370.516C148.56 366.311 161.305 370.302 166.729 373.919C167.052 374.133 170.257 376.805 172.229 378.516C171.224 377.34 170.333 376.217 169.214 374.952C167.184 372.547 165.231 370.088 163.126 367.433L160.186 363.478C159.162 362.177 158.289 360.681 157.303 359.273C155.122 355.959 153.093 352.502 151.139 348.975C148.882 350.632 140.803 356.44 135.966 357.598C131.13 358.756 124.587 358.952 120.566 355.816C119.574 355.122 118.748 354.238 118.143 353.224C117.538 352.209 117.168 351.087 117.055 349.929C116.942 348.771 117.09 347.604 117.489 346.503C117.888 345.402 118.53 344.393 119.371 343.54C124.606 338.552 137.844 340.672 143.78 343.54C144.16 343.719 148.181 346.177 150.362 347.567C149.205 345.429 148.029 343.309 146.929 341.117C143.742 334.81 140.727 328.324 137.692 321.857C136.763 319.879 135.796 317.919 134.866 315.941C134.07 316.547 124.625 323.656 119.219 324.939C114.402 326.097 107.84 326.293 103.819 323.157C102.827 322.462 102.001 321.579 101.396 320.565C100.792 319.55 100.421 318.428 100.308 317.27C100.195 316.112 100.343 314.945 100.742 313.844C101.141 312.743 101.783 311.734 102.624 310.881C107.84 305.892 121.078 308.013 127.033 310.881C127.489 311.095 133.273 314.641 134.62 315.603C132.534 311.273 130.428 306.979 128.152 302.81C125.114 297.181 121.693 291.741 117.911 286.525C117.532 286.81 107.726 294.276 102.169 295.594C97.3517 296.734 90.7895 296.948 86.7687 293.812C85.7753 293.118 84.9491 292.234 84.3442 291.219C83.7392 290.204 83.3692 289.08 83.2582 287.921C83.1472 286.763 83.2978 285.595 83.7001 284.495C84.1024 283.394 84.7474 282.386 85.5928 281.536C90.8085 276.547 104.047 278.668 109.983 281.536C110.457 281.75 116.678 285.563 117.759 286.329C117.532 286.026 117.342 285.705 117.114 285.403C113.142 280.295 108.7 275.525 103.838 271.149C101.183 268.69 98.5087 266.481 95.8534 264.378C94.1655 265.946 86.3704 273.02 81.5721 274.73C76.7737 276.44 70.5149 277.242 66.0579 274.587C64.9911 274 64.068 273.209 63.3486 272.264C62.6293 271.32 62.1298 270.243 61.8829 269.105C61.636 267.967 61.6471 266.793 61.9155 265.659C62.1838 264.526 62.7035 263.458 63.4406 262.525C68.0493 257.02 81.4582 257.75 87.6981 259.924C88.0394 260.049 91.3395 261.599 93.7292 262.757C92.5154 261.83 91.2826 260.85 90.1067 259.995C85.6687 256.717 81.4014 253.973 77.6082 251.585C75.4271 250.249 73.4357 249.073 71.558 248.022C69.0545 248.752 58.9457 251.585 53.9007 250.997C48.8558 250.409 42.8436 248.432 40.1883 244.156C39.5339 243.17 39.1068 242.067 38.9346 240.917C38.7624 239.767 38.8488 238.596 39.1884 237.479C39.5281 236.363 40.1132 235.325 40.9062 234.434C41.6991 233.544 42.6822 232.819 43.7919 232.307C50.5817 229.421 62.113 235.871 66.551 240.503C66.9303 240.913 72.2408 247.808 72.0891 247.844H71.9373C73.8339 248.841 75.7305 249.946 77.8168 251.193C81.61 253.51 86.0291 256.164 90.5619 259.354C95.4678 262.749 100.166 266.402 104.635 270.294C109.642 274.663 114.236 279.432 118.366 284.547C118.399 284.619 118.444 284.685 118.499 284.743C117.778 282.819 115.957 277.331 115.863 276.904C114.611 270.775 116.033 258.213 122.558 254.846C123.659 254.316 124.866 254.01 126.101 253.947C127.336 253.884 128.572 254.066 129.727 254.481C130.883 254.896 131.933 255.535 132.808 256.356C133.684 257.177 134.366 258.162 134.81 259.247C136.858 263.808 134.81 269.599 132.42 273.643C129.613 278.204 119.732 284.85 118.954 285.367C122.998 290.67 126.666 296.217 129.935 301.973C131.832 305.322 133.728 308.743 135.473 312.2C134.904 310.507 134.411 308.993 134.373 308.779C133.122 302.65 134.525 290.089 141.068 286.721C142.171 286.192 143.379 285.886 144.615 285.825C145.851 285.763 147.088 285.947 148.243 286.363C149.399 286.78 150.448 287.421 151.323 288.244C152.198 289.067 152.878 290.053 153.32 291.14C155.369 295.683 153.32 301.474 150.931 305.518C148.541 309.563 140.101 315.443 137.882 316.957C138.546 318.293 139.229 319.612 139.892 320.948C143.098 327.344 146.246 333.759 149.546 339.959C150.703 342.133 151.936 344.235 153.15 346.356C152.656 344.859 152.258 343.594 152.201 343.38C150.95 337.251 152.372 324.707 158.896 321.34C159.997 320.81 161.205 320.504 162.44 320.441C163.675 320.378 164.911 320.56 166.066 320.976C167.222 321.391 168.271 322.029 169.147 322.85C170.022 323.671 170.704 324.656 171.148 325.741C173.197 330.284 171.243 336.093 168.759 340.137C166.274 344.182 158.745 349.474 156.108 351.291C157.436 353.411 158.745 355.549 160.129 357.563C161.115 358.917 162.026 360.289 163.012 361.589L166.046 365.491C168.076 367.897 170.143 370.409 172.191 372.707C173.595 374.329 174.96 375.843 176.345 377.375C175.15 375.22 172.931 370.943 172.798 370.569C170.56 364.672 169.934 352.075 175.852 347.816C176.854 347.136 177.998 346.661 179.209 346.423C180.42 346.184 181.67 346.188 182.879 346.433C184.089 346.679 185.229 347.16 186.227 347.847C187.225 348.533 188.059 349.409 188.673 350.418C191.423 354.623 190.418 360.645 188.673 364.992C186.776 369.785 178.374 377.465 177.293 378.427C179.588 380.957 181.826 383.38 184.007 385.66C191.48 393.518 198.023 399.807 202.67 404.155C207.316 408.502 210.123 410.765 210.123 410.765ZM95.7017 263.006C95.7017 263.006 104.028 253.51 105.507 248.218C106.759 243.71 107.024 237.527 103.781 233.75C103.049 232.812 102.114 232.029 101.038 231.452C99.9615 230.876 98.7681 230.519 97.5353 230.404C96.3024 230.29 95.0578 230.421 93.8824 230.789C92.7071 231.157 91.6274 231.753 90.7136 232.539C85.3652 237.403 87.5274 249.857 90.4671 255.47C90.6378 255.951 95.6069 263.095 95.7017 263.006Z" fill="#425C50"/>
<path opacity="0.1" d="M210.123 410.765C210.432 410.966 210.692 411.226 210.884 411.529C211.076 411.832 211.197 412.171 211.237 412.522C211.278 412.872 211.238 413.227 211.12 413.562C211.001 413.897 210.808 414.204 210.552 414.462C210.296 414.721 209.984 414.924 209.637 415.059C209.29 415.194 208.917 415.258 208.541 415.245C208.166 415.232 207.798 415.144 207.462 414.986C207.127 414.828 206.831 414.603 206.596 414.328C206.596 414.328 203.827 411.834 199.256 407.362C194.685 402.89 188.199 396.386 180.821 388.297C178.488 385.732 176.06 382.952 173.576 380.101C172.343 380.761 162.196 386.213 156.734 386.712C151.784 387.157 145.355 386.444 141.789 382.81C140.922 381.982 140.25 380.992 139.817 379.904C139.383 378.816 139.198 377.655 139.273 376.496C139.348 375.337 139.682 374.205 140.253 373.175C140.823 372.145 141.618 371.239 142.586 370.516C148.56 366.311 161.305 370.302 166.729 373.919C167.052 374.133 170.257 376.805 172.229 378.516C171.224 377.34 170.333 376.217 169.214 374.952C167.184 372.547 165.231 370.088 163.126 367.433L160.186 363.478C159.162 362.177 158.289 360.681 157.303 359.273C155.122 355.959 153.093 352.502 151.139 348.975C148.882 350.632 140.803 356.44 135.966 357.598C131.13 358.756 124.587 358.952 120.566 355.816C119.574 355.122 118.748 354.238 118.143 353.224C117.538 352.209 117.168 351.087 117.055 349.929C116.942 348.771 117.09 347.604 117.489 346.503C117.888 345.402 118.53 344.393 119.371 343.54C124.606 338.552 137.844 340.672 143.78 343.54C144.16 343.719 148.181 346.177 150.362 347.567C149.205 345.429 148.029 343.309 146.929 341.117C143.742 334.81 140.727 328.324 137.692 321.857C136.763 319.879 135.796 317.919 134.866 315.941C134.07 316.547 124.625 323.656 119.219 324.939C114.402 326.097 107.84 326.293 103.819 323.157C102.827 322.462 102.001 321.579 101.396 320.565C100.792 319.55 100.421 318.428 100.308 317.27C100.195 316.112 100.343 314.945 100.742 313.844C101.141 312.743 101.783 311.734 102.624 310.881C107.84 305.892 121.078 308.013 127.033 310.881C127.489 311.095 133.273 314.641 134.62 315.603C132.534 311.273 130.428 306.979 128.152 302.81C125.114 297.181 121.693 291.741 117.911 286.525C117.532 286.81 107.726 294.276 102.169 295.594C97.3517 296.734 90.7895 296.948 86.7687 293.812C85.7753 293.118 84.9491 292.234 84.3442 291.219C83.7392 290.204 83.3692 289.08 83.2582 287.921C83.1472 286.763 83.2978 285.595 83.7001 284.495C84.1024 283.394 84.7474 282.386 85.5928 281.536C90.8085 276.547 104.047 278.668 109.983 281.536C110.457 281.75 116.678 285.563 117.759 286.329C117.532 286.026 117.342 285.705 117.114 285.403C113.142 280.295 108.7 275.525 103.838 271.149C101.183 268.69 98.5087 266.481 95.8534 264.378C94.1655 265.946 86.3704 273.02 81.5721 274.73C76.7737 276.44 70.5149 277.242 66.0579 274.587C64.9911 274 64.068 273.209 63.3486 272.264C62.6293 271.32 62.1298 270.243 61.8829 269.105C61.636 267.967 61.6471 266.793 61.9155 265.659C62.1838 264.526 62.7035 263.458 63.4406 262.525C68.0493 257.02 81.4582 257.75 87.6981 259.924C88.0394 260.049 91.3395 261.599 93.7292 262.757C92.5154 261.83 91.2826 260.85 90.1067 259.995C85.6687 256.717 81.4014 253.973 77.6082 251.585C75.4271 250.249 73.4357 249.073 71.558 248.022C69.0545 248.752 58.9457 251.585 53.9007 250.997C48.8558 250.409 42.8436 248.432 40.1883 244.156C39.5339 243.17 39.1068 242.067 38.9346 240.917C38.7624 239.767 38.8488 238.596 39.1884 237.479C39.5281 236.363 40.1132 235.325 40.9062 234.434C41.6991 233.544 42.6822 232.819 43.7919 232.307C50.5817 229.421 62.113 235.871 66.551 240.503C66.9303 240.913 72.2408 247.808 72.0891 247.844H71.9373C73.8339 248.841 75.7305 249.946 77.8168 251.193C81.61 253.51 86.0291 256.164 90.5619 259.354C95.4678 262.749 100.166 266.402 104.635 270.294C109.642 274.663 114.236 279.432 118.366 284.547C118.399 284.619 118.444 284.685 118.499 284.743C117.778 282.819 115.957 277.331 115.863 276.904C114.611 270.775 116.033 258.213 122.558 254.846C123.659 254.316 124.866 254.01 126.101 253.947C127.336 253.884 128.572 254.066 129.727 254.481C130.883 254.896 131.933 255.535 132.808 256.356C133.684 257.177 134.366 258.162 134.81 259.247C136.858 263.808 134.81 269.599 132.42 273.643C129.613 278.204 119.732 284.85 118.954 285.367C122.998 290.67 126.666 296.217 129.935 301.973C131.832 305.322 133.728 308.743 135.473 312.2C134.904 310.507 134.411 308.993 134.373 308.779C133.122 302.65 134.525 290.089 141.068 286.721C142.171 286.192 143.379 285.886 144.615 285.825C145.851 285.763 147.088 285.947 148.243 286.363C149.399 286.78 150.448 287.421 151.323 288.244C152.198 289.067 152.878 290.053 153.32 291.14C155.369 295.683 153.32 301.474 150.931 305.518C148.541 309.563 140.101 315.443 137.882 316.957C138.546 318.293 139.229 319.612 139.892 320.948C143.098 327.344 146.246 333.759 149.546 339.959C150.703 342.133 151.936 344.235 153.15 346.356C152.656 344.859 152.258 343.594 152.201 343.38C150.95 337.251 152.372 324.707 158.896 321.34C159.997 320.81 161.205 320.504 162.44 320.441C163.675 320.378 164.911 320.56 166.066 320.976C167.222 321.391 168.271 322.029 169.147 322.85C170.022 323.671 170.704 324.656 171.148 325.741C173.197 330.284 171.243 336.093 168.759 340.137C166.274 344.182 158.745 349.474 156.108 351.291C157.436 353.411 158.745 355.549 160.129 357.563C161.115 358.917 162.026 360.289 163.012 361.589L166.046 365.491C168.076 367.897 170.143 370.409 172.191 372.707C173.595 374.329 174.96 375.843 176.345 377.375C175.15 375.22 172.931 370.943 172.798 370.569C170.56 364.672 169.934 352.075 175.852 347.816C176.854 347.136 177.998 346.661 179.209 346.423C180.42 346.184 181.67 346.188 182.879 346.433C184.089 346.679 185.229 347.16 186.227 347.847C187.225 348.533 188.059 349.409 188.673 350.418C191.423 354.623 190.418 360.645 188.673 364.992C186.776 369.785 178.374 377.465 177.293 378.427C179.588 380.957 181.826 383.38 184.007 385.66C191.48 393.518 198.023 399.807 202.67 404.155C207.316 408.502 210.123 410.765 210.123 410.765ZM95.7017 263.006C95.7017 263.006 104.028 253.51 105.507 248.218C106.759 243.71 107.024 237.527 103.781 233.75C103.049 232.812 102.114 232.029 101.038 231.452C99.9615 230.876 98.7681 230.519 97.5353 230.404C96.3024 230.29 95.0578 230.421 93.8824 230.789C92.7071 231.157 91.6274 231.753 90.7136 232.539C85.3652 237.403 87.5274 249.857 90.4671 255.47C90.6378 255.951 95.6069 263.095 95.7017 263.006Z" fill="#425C50"/>
<path d="M161.514 528.27C159.901 522.301 157.72 513.749 155.634 503.326C155.027 500.35 154.42 497.161 153.851 493.9C155.255 493.58 166.615 491.014 170.921 487.86C174.847 484.992 179 480.324 178.943 475.388C178.971 474.233 178.74 473.085 178.267 472.019C177.793 470.953 177.087 469.991 176.193 469.197C175.299 468.403 174.239 467.794 173.079 467.409C171.919 467.023 170.687 466.871 169.46 466.961C162.045 467.745 155.691 478.863 154.288 484.992C154.288 485.384 153.757 490.123 153.605 492.546C153.244 490.569 152.903 488.609 152.581 486.542C152.106 483.584 151.689 480.431 151.272 477.384L150.817 472.573C150.608 470.934 150.646 469.348 150.551 467.727C150.551 465.339 150.551 462.863 150.551 460.404C153.794 460.119 163.296 459.139 167.507 456.93C171.717 454.72 176.705 450.64 177.426 445.758C177.642 444.613 177.598 443.438 177.298 442.31C176.998 441.182 176.448 440.126 175.683 439.211C174.919 438.296 173.958 437.543 172.863 437.001C171.767 436.459 170.563 436.14 169.328 436.066C161.893 435.781 153.813 445.865 151.519 451.745C151.519 451.923 151.101 453.206 150.722 454.738C150.722 452.333 150.931 449.945 151.12 447.504C151.689 440.591 152.486 433.589 153.263 426.551C153.415 425.072 153.548 423.611 153.719 422.15C156.45 421.919 166.748 420.939 171.148 418.587C175.548 416.235 180.347 412.297 181.086 407.398C181.299 406.253 181.254 405.079 180.952 403.952C180.651 402.825 180.1 401.77 179.336 400.856C178.573 399.942 177.613 399.189 176.519 398.646C175.425 398.103 174.222 397.783 172.988 397.705C165.553 397.438 157.455 407.522 155.179 413.384C155.179 413.598 154.686 415.166 154.25 416.859C154.61 413.028 154.913 409.215 155.103 405.42C155.458 398.887 155.344 392.339 154.762 385.821C155.729 385.821 167.829 384.823 172.741 382.257C177.066 379.995 181.94 375.968 182.661 371.068C182.877 369.923 182.833 368.748 182.533 367.62C182.232 366.492 181.682 365.436 180.918 364.521C180.154 363.606 179.192 362.853 178.097 362.311C177.002 361.769 175.797 361.45 174.562 361.375C167.128 361.108 159.048 371.193 156.753 377.055C156.601 377.464 155.16 383.041 154.724 385.055C154.724 385.055 154.724 384.894 154.724 384.823C153.997 378.446 152.664 372.144 150.741 365.99C149.043 360.492 147.01 355.091 144.653 349.812C142.529 344.895 140.253 340.511 138.204 336.645C137.085 334.56 136.023 332.69 134.999 330.926H135.151C135.284 330.926 134.544 322.498 134.43 322.017C133.122 315.888 126.844 304.77 119.257 303.968C118.031 303.878 116.798 304.031 115.639 304.416C114.479 304.801 113.418 305.411 112.525 306.205C111.631 306.999 110.925 307.96 110.451 309.026C109.977 310.093 109.747 311.241 109.774 312.396C109.774 317.331 113.852 321.999 117.778 324.868C121.704 327.736 132.003 330.213 134.544 330.854C135.568 332.636 136.63 334.667 137.768 336.859C139.665 340.761 141.865 345.162 143.875 350.115C144.425 351.433 144.937 352.859 145.468 354.249C144.065 352.093 142.073 349.153 141.846 348.903C137.692 344.039 126.673 336.93 119.637 339.425C118.495 339.87 117.465 340.536 116.615 341.379C115.765 342.223 115.113 343.225 114.701 344.32C114.29 345.416 114.128 346.58 114.227 347.738C114.326 348.896 114.683 350.022 115.275 351.042C117.626 355.46 123.601 357.794 128.551 358.649C133.501 359.505 144.16 357.206 146.455 356.672C147.593 359.754 148.674 362.943 149.603 366.329C151.37 372.441 152.545 378.69 153.112 385.001C153.112 385.358 153.112 385.75 153.112 386.106C152.619 384.93 149.318 378.64 149.091 378.231C145.525 372.885 135.322 364.743 128.115 366.507C126.926 366.83 125.822 367.384 124.877 368.135C123.932 368.885 123.166 369.815 122.629 370.862C122.092 371.91 121.796 373.052 121.761 374.214C121.726 375.376 121.952 376.533 122.425 377.607C124.321 382.24 130.011 385.197 134.677 386.516C140.158 388.066 152.656 386.409 153.131 386.355C153.512 392.653 153.468 398.967 152.998 405.259C152.656 409.928 152.125 414.631 151.537 419.353C150.855 417.839 147.744 411.994 147.555 411.602C143.989 406.257 133.785 398.115 126.578 399.879C125.389 400.201 124.286 400.756 123.341 401.507C122.396 402.257 121.63 403.187 121.093 404.234C120.556 405.282 120.26 406.424 120.225 407.586C120.19 408.748 120.416 409.904 120.888 410.979C122.785 415.611 128.475 418.551 133.141 419.887C138.489 421.384 150.475 419.887 151.5 419.727C151.215 421.865 150.969 424.021 150.684 426.159C149.755 433.161 148.787 440.199 148.048 447.148C147.801 449.553 147.649 451.941 147.479 454.275C146.36 452.03 144.255 447.968 144.027 447.647C140.461 442.302 130.277 434.159 123.164 435.923C121.977 436.248 120.876 436.804 119.932 437.555C118.989 438.306 118.224 439.236 117.687 440.282C117.151 441.329 116.854 442.47 116.818 443.632C116.781 444.793 117.005 445.948 117.475 447.023C119.371 451.656 125.061 454.596 129.727 455.932C134.392 457.268 144.615 456.199 147.46 455.843C147.213 459.816 147.062 463.771 147.118 467.656C147.118 469.348 147.118 471.059 147.289 472.662L147.631 477.491C148.01 480.769 148.332 483.816 148.749 486.88C148.958 488.413 149.186 489.856 149.413 491.353C148.636 488.929 147.365 485.081 147.213 484.742C144.52 479.023 135.834 469.455 128.361 470.168C127.136 470.32 125.958 470.713 124.905 471.321C123.851 471.928 122.945 472.737 122.246 473.695C121.547 474.652 121.07 475.737 120.846 476.879C120.622 478.021 120.656 479.195 120.945 480.324C122.007 485.17 127.128 488.894 131.623 490.889C136.573 493.099 148.256 493.33 149.698 493.348C150.248 497.019 150.817 500.564 151.424 503.896C153.32 514.39 155.217 523.085 156.772 529.143C158.327 535.201 159.276 538.658 159.276 538.658C159.508 539.239 159.967 539.717 160.559 539.994C161.151 540.271 161.833 540.327 162.467 540.151C163.102 539.975 163.642 539.579 163.978 539.045C164.315 538.51 164.424 537.875 164.283 537.268C164.283 537.268 163.126 534.257 161.514 528.27Z" fill="#425C50"/>
<path d="M147.005 355.585C147.005 355.585 159.352 351.487 163.505 347.656C167.052 344.378 170.617 339.3 169.954 334.4C169.838 333.242 169.463 332.12 168.855 331.107C168.247 330.094 167.419 329.213 166.424 328.52C165.429 327.828 164.29 327.34 163.082 327.088C161.873 326.836 160.621 326.827 159.408 327.059C152.163 328.645 147.194 340.369 146.644 346.658C146.587 347.175 146.872 355.638 147.005 355.585Z" fill="#425C50"/>
<path d="M154.401 530.782C149.565 526.649 142.737 520.626 134.885 513.072C132.628 510.898 130.258 508.564 127.868 506.141C128.854 505.143 136.801 497.108 138.565 492.244C140.158 487.825 140.879 481.785 137.92 477.687C137.261 476.704 136.389 475.864 135.361 475.219C134.333 474.574 133.172 474.14 131.953 473.945C130.735 473.75 129.486 473.799 128.289 474.087C127.091 474.376 125.972 474.898 125.004 475.62C119.314 480.11 120.509 492.689 123.013 498.462C123.164 498.836 125.592 503.023 126.806 505.125C125.346 503.664 123.904 502.203 122.425 500.635C120.282 498.426 118.101 496.003 115.957 493.687L112.733 489.909C111.614 488.644 110.723 487.308 109.68 486.007C108.2 484.065 106.778 481.981 105.355 479.896C107.897 477.99 115.256 472.235 117.475 468.226C119.694 464.217 121.458 458.212 119.182 453.758C118.689 452.692 117.963 451.735 117.05 450.951C116.137 450.166 115.059 449.571 113.884 449.205C112.71 448.838 111.467 448.708 110.236 448.824C109.005 448.939 107.814 449.297 106.74 449.874C100.367 453.437 99.5518 466.088 101.05 472.163C101.05 472.377 101.581 473.624 102.15 475.103C100.823 473.036 99.4949 470.987 98.2242 468.849C94.6396 462.792 91.1878 456.538 87.6981 450.266C86.9774 448.965 86.2377 447.665 85.4981 446.364C87.6412 444.76 95.6638 438.596 97.9966 434.391C100.329 430.186 101.961 424.377 99.7036 419.923C99.2109 418.857 98.4845 417.9 97.5718 417.116C96.659 416.331 95.5804 415.736 94.4064 415.37C93.2324 415.003 91.9893 414.873 90.7582 414.989C89.5271 415.104 88.3358 415.462 87.2619 416.039C80.8893 419.602 80.0738 432.253 81.5721 438.328C81.5721 438.56 82.198 440.11 82.8428 441.714C80.9462 438.328 78.8979 434.997 76.8306 431.718C73.2858 426.106 69.3513 420.72 65.0527 415.593C65.8303 415.023 75.3892 407.986 77.9686 403.317C80.2634 399.184 81.9514 393.304 79.6755 388.85C79.1847 387.782 78.4596 386.824 77.5477 386.037C76.6357 385.251 75.5574 384.654 74.3832 384.286C73.209 383.918 71.9653 383.786 70.7333 383.9C69.5014 384.014 68.3089 384.371 67.2338 384.948C60.8613 388.511 60.0457 401.179 61.544 407.255C61.6578 407.683 63.7441 413.081 64.5407 414.988L64.4079 414.792C60.0417 409.863 55.225 405.302 50.0127 401.161C45.4337 397.457 40.6339 394.001 35.6365 390.81C30.9709 387.816 26.4949 385.34 22.531 383.184C20.3689 382.026 18.3585 381.01 16.4999 380.084H16.6326C16.7654 380.084 11.1704 373.367 10.7532 372.957C6.06858 368.52 -5.74722 362.551 -12.3853 365.723C-13.473 366.275 -14.4246 367.037 -15.178 367.958C-15.9314 368.879 -16.4697 369.939 -16.7578 371.069C-17.0459 372.199 -17.0774 373.373 -16.8501 374.515C-16.6228 375.656 -16.142 376.741 -15.4388 377.696C-12.5939 381.865 -6.39207 383.611 -1.42298 383.968C3.5461 384.324 13.617 381.081 16.0636 380.262C17.9602 381.26 20.0465 382.346 22.2845 383.611C26.1915 385.839 30.5916 388.404 35.1624 391.487C36.3952 392.306 37.6659 393.268 38.9556 394.106C36.5279 393.037 33.133 391.629 32.7916 391.522C26.457 389.616 13.0291 389.42 8.68588 395.086C7.99697 396.05 7.53115 397.14 7.31852 398.284C7.10589 399.428 7.15119 400.602 7.45148 401.729C7.75178 402.855 8.30039 403.91 9.06187 404.825C9.82334 405.741 10.7807 406.495 11.8722 407.041C16.443 409.482 22.7966 408.36 27.3674 406.524C31.9382 404.689 39.5435 397.224 41.1556 395.602C43.9057 397.58 46.6747 399.683 49.4437 402.017C54.4997 406.203 59.146 410.806 63.3268 415.772C63.5734 416.057 63.782 416.377 64.0286 416.68C62.9096 415.95 56.4422 412.404 56.0249 412.208C49.9558 409.66 36.6228 408.075 31.6537 413.295C30.8543 414.181 30.2622 415.215 29.9157 416.33C29.5692 417.445 29.4761 418.616 29.6425 419.766C29.8088 420.917 30.2308 422.022 30.8812 423.01C31.5315 423.998 32.3956 424.846 33.4175 425.5C37.6659 428.404 44.1333 427.941 48.8748 426.587C54.3559 425.037 63.82 417.179 64.1803 416.894C68.2097 421.944 71.8843 427.235 75.1806 432.734C77.6461 436.796 79.96 441.001 82.2359 445.206C80.7755 444.297 74.8202 441.001 74.365 440.805C68.2959 438.257 54.9628 436.689 49.9748 441.892C49.1735 442.778 48.5802 443.813 48.2335 444.929C47.8869 446.045 47.7946 447.217 47.9629 448.369C48.1311 449.52 48.5561 450.626 49.2099 451.613C49.8638 452.6 50.7319 453.446 51.7576 454.097C56.006 457.019 62.4544 456.538 67.2149 455.201C72.5633 453.669 81.6669 446.186 82.3876 445.562C83.4308 447.486 84.4739 449.411 85.4981 451.335C88.8361 457.678 92.1361 464.021 95.6259 470.203C96.8207 472.342 98.0914 474.426 99.4191 476.493C97.1621 475.192 93.0275 472.93 92.6482 472.751C86.5791 470.204 73.246 468.636 68.277 473.838C67.4776 474.724 66.8855 475.758 66.539 476.873C66.1925 477.988 66.0994 479.159 66.2657 480.31C66.4321 481.461 66.8541 482.566 67.5044 483.553C68.1548 484.541 69.0189 485.389 70.0408 486.043C74.2892 488.965 80.7376 488.484 85.4981 487.148C90.2585 485.811 98.0725 479.647 100.254 477.883C102.378 481.321 104.559 484.707 106.892 487.914C107.935 489.286 108.902 490.747 109.964 492.012L113.094 495.843C115.332 498.39 117.399 500.778 119.542 503.094L122.709 506.497C120.642 504.858 117.323 502.328 117.02 502.132C111.33 498.747 98.5087 495.29 92.743 499.727C91.8074 500.489 91.0529 501.427 90.5288 502.481C90.0048 503.535 89.7228 504.681 89.7014 505.844C89.6799 507.007 89.9194 508.161 90.4042 509.232C90.8891 510.302 91.6084 511.264 92.5155 512.056C96.3086 515.531 102.719 515.994 107.688 515.335C113.113 514.604 122.994 508.742 124.208 508.012C126.806 510.773 129.385 513.357 131.794 515.905C139.532 523.691 146.303 529.909 151.101 534.185C155.9 538.462 158.688 540.849 158.688 540.849C159.224 541.218 159.889 541.382 160.549 541.307C161.208 541.232 161.813 540.924 162.24 540.446C162.667 539.968 162.885 539.355 162.848 538.732C162.812 538.108 162.525 537.521 162.045 537.09C162.045 537.09 159.257 534.934 154.401 530.782Z" fill="#425C50"/>
<path d="M40.9091 394.284C40.9091 394.284 48.7799 384.467 50.0127 379.104C51.0559 374.543 51.0369 368.413 47.604 364.707C46.8257 363.804 45.8541 363.064 44.7522 362.536C43.6503 362.008 42.4426 361.703 41.2073 361.641C39.972 361.579 38.7366 361.761 37.5809 362.175C36.4253 362.59 35.3752 363.228 34.4986 364.048C29.3777 369.126 32.1278 381.491 35.3141 386.961C35.6365 387.442 40.8142 394.373 40.9091 394.284Z" fill="#425C50"/>
<g opacity="0.1">
<path opacity="0.1" d="M161.514 528.27C159.901 522.301 157.72 513.749 155.634 503.326C155.027 500.35 154.42 497.161 153.851 493.9C155.255 493.58 166.615 491.014 170.921 487.86C174.847 484.992 179 480.324 178.943 475.388C178.971 474.233 178.74 473.085 178.267 472.019C177.793 470.953 177.087 469.991 176.193 469.197C175.299 468.403 174.239 467.794 173.079 467.409C171.919 467.023 170.687 466.871 169.46 466.961C162.045 467.745 155.691 478.863 154.288 484.992C154.288 485.384 153.757 490.123 153.605 492.546C153.244 490.569 152.903 488.609 152.581 486.542C152.106 483.584 151.689 480.431 151.272 477.384L150.817 472.573C150.608 470.934 150.646 469.348 150.551 467.727C150.551 465.339 150.551 462.863 150.551 460.404C153.794 460.119 163.296 459.139 167.507 456.93C171.717 454.72 176.705 450.64 177.426 445.758C177.642 444.613 177.598 443.438 177.298 442.31C176.998 441.182 176.448 440.126 175.683 439.211C174.919 438.296 173.958 437.543 172.863 437.001C171.767 436.459 170.563 436.14 169.328 436.066C161.893 435.781 153.813 445.865 151.519 451.745C151.519 451.923 151.101 453.206 150.722 454.738C150.722 452.333 150.931 449.945 151.12 447.504C151.689 440.591 152.486 433.589 153.263 426.551C153.415 425.072 153.548 423.611 153.719 422.15C156.45 421.919 166.748 420.939 171.148 418.587C175.548 416.235 180.347 412.297 181.086 407.398C181.299 406.253 181.254 405.079 180.952 403.952C180.651 402.825 180.1 401.77 179.336 400.856C178.573 399.942 177.613 399.189 176.519 398.646C175.425 398.103 174.222 397.783 172.988 397.705C165.553 397.438 157.455 407.522 155.179 413.384C155.179 413.598 154.686 415.166 154.25 416.859C154.61 413.028 154.913 409.215 155.103 405.42C155.458 398.887 155.344 392.339 154.762 385.821C155.729 385.821 167.829 384.823 172.741 382.257C177.066 379.995 181.94 375.968 182.661 371.068C182.877 369.923 182.833 368.748 182.533 367.62C182.232 366.492 181.682 365.436 180.918 364.521C180.154 363.606 179.192 362.853 178.097 362.311C177.002 361.769 175.797 361.45 174.562 361.375C167.128 361.108 159.048 371.193 156.753 377.055C156.601 377.464 155.16 383.041 154.724 385.055C154.724 385.055 154.724 384.894 154.724 384.823C153.997 378.446 152.664 372.144 150.741 365.99C149.043 360.492 147.01 355.091 144.653 349.812C142.529 344.895 140.253 340.511 138.204 336.645C137.085 334.56 136.023 332.69 134.999 330.926H135.151C135.284 330.926 134.544 322.498 134.43 322.017C133.122 315.888 126.844 304.77 119.257 303.968C118.031 303.878 116.798 304.031 115.639 304.416C114.479 304.801 113.418 305.411 112.525 306.205C111.631 306.999 110.925 307.96 110.451 309.026C109.977 310.093 109.747 311.241 109.774 312.396C109.774 317.331 113.852 321.999 117.778 324.868C121.704 327.736 132.003 330.213 134.544 330.854C135.568 332.636 136.63 334.667 137.768 336.859C139.665 340.761 141.865 345.162 143.875 350.115C144.425 351.433 144.937 352.859 145.468 354.249C144.065 352.093 142.073 349.153 141.846 348.903C137.692 344.039 126.673 336.93 119.637 339.425C118.495 339.87 117.465 340.536 116.615 341.379C115.765 342.223 115.113 343.225 114.701 344.32C114.29 345.416 114.128 346.58 114.227 347.738C114.326 348.896 114.683 350.022 115.275 351.042C117.626 355.46 123.601 357.794 128.551 358.649C133.501 359.505 144.16 357.206 146.455 356.672C147.593 359.754 148.674 362.943 149.603 366.329C151.37 372.441 152.545 378.69 153.112 385.001C153.112 385.358 153.112 385.75 153.112 386.106C152.619 384.93 149.318 378.64 149.091 378.231C145.525 372.885 135.322 364.743 128.115 366.507C126.926 366.83 125.822 367.384 124.877 368.135C123.932 368.885 123.166 369.815 122.629 370.862C122.092 371.91 121.796 373.052 121.761 374.214C121.726 375.376 121.952 376.533 122.425 377.607C124.321 382.24 130.011 385.197 134.677 386.516C140.158 388.066 152.656 386.409 153.131 386.355C153.512 392.653 153.468 398.967 152.998 405.259C152.656 409.928 152.125 414.631 151.537 419.353C150.855 417.839 147.744 411.994 147.555 411.602C143.989 406.257 133.785 398.115 126.578 399.879C125.389 400.201 124.286 400.756 123.341 401.507C122.396 402.257 121.63 403.187 121.093 404.234C120.556 405.282 120.26 406.424 120.225 407.586C120.19 408.748 120.416 409.904 120.888 410.979C122.785 415.611 128.475 418.551 133.141 419.887C138.489 421.384 150.475 419.887 151.5 419.727C151.215 421.865 150.969 424.021 150.684 426.159C149.755 433.161 148.787 440.199 148.048 447.148C147.801 449.553 147.649 451.941 147.479 454.275C146.36 452.03 144.255 447.968 144.027 447.647C140.461 442.302 130.277 434.159 123.164 435.923C121.977 436.248 120.876 436.804 119.932 437.555C118.989 438.306 118.224 439.236 117.687 440.282C117.151 441.329 116.854 442.47 116.818 443.632C116.781 444.793 117.005 445.948 117.475 447.023C119.371 451.656 125.061 454.596 129.727 455.932C134.392 457.268 144.615 456.199 147.46 455.843C147.213 459.816 147.062 463.771 147.118 467.656C147.118 469.348 147.118 471.059 147.289 472.662L147.631 477.491C148.01 480.769 148.332 483.816 148.749 486.88C148.958 488.413 149.186 489.856 149.413 491.353C148.636 488.929 147.365 485.081 147.213 484.742C144.52 479.023 135.834 469.455 128.361 470.168C127.136 470.32 125.958 470.713 124.905 471.321C123.851 471.928 122.945 472.737 122.246 473.695C121.547 474.652 121.07 475.737 120.846 476.879C120.622 478.021 120.656 479.195 120.945 480.324C122.007 485.17 127.128 488.894 131.623 490.889C136.573 493.099 148.256 493.33 149.698 493.348C150.248 497.019 150.817 500.564 151.424 503.896C153.32 514.39 155.217 523.085 156.772 529.143C158.327 535.201 159.276 538.658 159.276 538.658C159.508 539.239 159.967 539.717 160.559 539.994C161.151 540.271 161.833 540.327 162.467 540.151C163.102 539.975 163.642 539.579 163.978 539.045C164.315 538.51 164.424 537.875 164.283 537.268C164.283 537.268 163.126 534.257 161.514 528.27Z" fill="#425C50"/>
<path opacity="0.1" d="M147.005 355.585C147.005 355.585 159.352 351.487 163.505 347.656C167.052 344.378 170.617 339.3 169.954 334.4C169.838 333.242 169.463 332.12 168.855 331.107C168.247 330.094 167.419 329.213 166.424 328.52C165.429 327.828 164.29 327.34 163.082 327.088C161.873 326.836 160.621 326.827 159.408 327.059C152.163 328.645 147.194 340.369 146.644 346.658C146.587 347.175 146.872 355.638 147.005 355.585Z" fill="#425C50"/>
<path opacity="0.1" d="M154.401 530.782C149.565 526.649 142.737 520.626 134.885 513.072C132.628 510.898 130.258 508.564 127.868 506.141C128.854 505.143 136.801 497.108 138.565 492.244C140.158 487.825 140.879 481.785 137.92 477.687C137.261 476.704 136.389 475.864 135.361 475.219C134.333 474.574 133.172 474.14 131.953 473.945C130.735 473.75 129.486 473.799 128.289 474.087C127.091 474.376 125.972 474.898 125.004 475.62C119.314 480.11 120.509 492.689 123.013 498.462C123.164 498.836 125.592 503.023 126.806 505.125C125.346 503.664 123.904 502.203 122.425 500.635C120.282 498.426 118.101 496.003 115.957 493.687L112.733 489.909C111.614 488.644 110.723 487.308 109.68 486.008C108.2 484.065 106.778 481.981 105.355 479.896C107.897 477.99 115.256 472.235 117.475 468.226C119.694 464.217 121.458 458.213 119.182 453.758C118.689 452.692 117.963 451.736 117.05 450.951C116.137 450.166 115.059 449.571 113.884 449.205C112.71 448.838 111.467 448.709 110.236 448.824C109.005 448.939 107.814 449.297 106.74 449.874C100.367 453.438 99.5518 466.088 101.05 472.163C101.05 472.377 101.581 473.624 102.15 475.103C100.823 473.036 99.4949 470.988 98.2242 468.849C94.6396 462.792 91.1878 456.538 87.6981 450.266C86.9774 448.965 86.2377 447.665 85.4981 446.364C87.6412 444.76 95.6638 438.596 97.9966 434.391C100.329 430.186 101.961 424.377 99.7036 419.923C99.2109 418.857 98.4845 417.9 97.5718 417.116C96.659 416.331 95.5804 415.736 94.4064 415.37C93.2324 415.003 91.9893 414.874 90.7582 414.989C89.5271 415.104 88.3358 415.462 87.2619 416.039C80.8893 419.602 80.0738 432.253 81.5721 438.328C81.5721 438.56 82.198 440.11 82.8428 441.714C80.9462 438.328 78.8979 434.997 76.8306 431.718C73.2858 426.106 69.3513 420.72 65.0527 415.594C65.8303 415.023 75.3892 407.986 77.9686 403.317C80.2634 399.184 81.9514 393.304 79.6755 388.85C79.1847 387.782 78.4596 386.824 77.5477 386.037C76.6357 385.251 75.5574 384.654 74.3832 384.286C73.209 383.918 71.9653 383.786 70.7333 383.9C69.5014 384.014 68.3089 384.371 67.2338 384.948C60.8613 388.511 60.0457 401.179 61.544 407.255C61.6578 407.683 63.7441 413.081 64.5407 414.988L64.4079 414.792C60.0417 409.863 55.225 405.302 50.0127 401.162C45.4337 397.457 40.6339 394.001 35.6365 390.81C30.9709 387.816 26.4949 385.34 22.531 383.184C20.3689 382.026 18.3585 381.01 16.4999 380.084H16.6326C16.7654 380.084 11.1704 373.367 10.7532 372.957C6.06858 368.52 -5.74722 362.551 -12.3853 365.723C-13.473 366.275 -14.4246 367.037 -15.178 367.958C-15.9314 368.879 -16.4697 369.939 -16.7578 371.069C-17.0459 372.199 -17.0774 373.373 -16.8501 374.515C-16.6228 375.657 -16.142 376.741 -15.4388 377.696C-12.5939 381.865 -6.39207 383.612 -1.42298 383.968C3.5461 384.324 13.617 381.081 16.0636 380.262C17.9602 381.26 20.0465 382.347 22.2845 383.612C26.1915 385.839 30.5916 388.404 35.1624 391.487C36.3952 392.306 37.6659 393.268 38.9556 394.106C36.5279 393.037 33.133 391.629 32.7916 391.522C26.457 389.616 13.0291 389.42 8.68588 395.086C7.99697 396.05 7.53115 397.14 7.31852 398.284C7.10589 399.428 7.15119 400.602 7.45148 401.729C7.75178 402.855 8.30039 403.91 9.06187 404.826C9.82334 405.741 10.7807 406.495 11.8722 407.041C16.443 409.482 22.7966 408.36 27.3674 406.525C31.9382 404.689 39.5435 397.224 41.1556 395.603C43.9057 397.58 46.6747 399.683 49.4437 402.017C54.4997 406.203 59.146 410.806 63.3268 415.772C63.5734 416.057 63.782 416.378 64.0286 416.68C62.9096 415.95 56.4422 412.404 56.0249 412.208C49.9558 409.66 36.6228 408.075 31.6537 413.295C30.8543 414.181 30.2622 415.215 29.9157 416.33C29.5692 417.445 29.4761 418.616 29.6425 419.767C29.8088 420.917 30.2308 422.023 30.8812 423.01C31.5315 423.998 32.3956 424.846 33.4175 425.5C37.6659 428.404 44.1333 427.941 48.8748 426.587C54.3559 425.037 63.82 417.179 64.1803 416.894C68.2097 421.944 71.8843 427.235 75.1806 432.734C77.6461 436.796 79.96 441.001 82.2359 445.206C80.7755 444.297 74.8202 441.001 74.365 440.805C68.2959 438.257 54.9628 436.689 49.9748 441.892C49.1735 442.778 48.5802 443.813 48.2335 444.929C47.8869 446.045 47.7946 447.217 47.9629 448.369C48.1311 449.52 48.5561 450.626 49.2099 451.613C49.8638 452.6 50.7319 453.446 51.7576 454.097C56.006 457.019 62.4544 456.538 67.2149 455.201C72.5633 453.669 81.6669 446.186 82.3876 445.562C83.4308 447.487 84.4739 449.411 85.4981 451.335C88.8361 457.678 92.1361 464.021 95.6259 470.204C96.8207 472.342 98.0914 474.426 99.4191 476.493C97.1621 475.192 93.0275 472.93 92.6482 472.751C86.5791 470.204 73.246 468.636 68.277 473.838C67.4776 474.724 66.8855 475.758 66.539 476.873C66.1925 477.988 66.0994 479.159 66.2657 480.31C66.4321 481.461 66.8541 482.566 67.5044 483.553C68.1548 484.541 69.0189 485.389 70.0408 486.043C74.2892 488.965 80.7376 488.484 85.4981 487.148C90.2585 485.811 98.0725 479.647 100.254 477.883C102.378 481.322 104.559 484.707 106.892 487.914C107.935 489.286 108.902 490.747 109.964 492.012L113.094 495.843C115.332 498.391 117.399 500.778 119.542 503.094L122.709 506.497C120.642 504.858 117.323 502.328 117.02 502.132C111.33 498.747 98.5087 495.29 92.743 499.727C91.8074 500.489 91.0529 501.427 90.5288 502.481C90.0048 503.535 89.7228 504.681 89.7014 505.844C89.6799 507.007 89.9194 508.161 90.4042 509.232C90.8891 510.302 91.6084 511.264 92.5155 512.056C96.3086 515.531 102.719 515.994 107.688 515.335C113.113 514.604 122.994 508.742 124.208 508.012C126.806 510.773 129.385 513.357 131.794 515.905C139.532 523.691 146.303 529.909 151.101 534.185C155.9 538.462 158.688 540.849 158.688 540.849C159.224 541.218 159.889 541.382 160.549 541.307C161.208 541.232 161.813 540.924 162.24 540.446C162.667 539.968 162.885 539.355 162.848 538.732C162.812 538.108 162.525 537.521 162.045 537.09C162.045 537.09 159.257 534.934 154.401 530.782Z" fill="#425C50"/>
<path opacity="0.1" d="M40.9091 394.284C40.9091 394.284 48.7799 384.467 50.0127 379.104C51.0559 374.543 51.0369 368.413 47.604 364.707C46.8257 363.804 45.8541 363.064 44.7522 362.536C43.6503 362.008 42.4426 361.703 41.2073 361.641C39.972 361.579 38.7366 361.761 37.5809 362.175C36.4253 362.59 35.3752 363.228 34.4986 364.048C29.3777 369.126 32.1278 381.491 35.3141 386.961C35.6365 387.442 40.8142 394.373 40.9091 394.284Z" fill="#425C50"/>
</g>
<g opacity="0.1">
<path opacity="0.1" d="M209.896 398.293C208.568 392.271 206.804 383.629 205.192 373.188C204.718 370.177 204.263 366.988 203.846 363.692C205.287 363.442 216.743 361.34 221.2 358.347C225.258 355.656 229.62 351.22 229.791 346.231C229.889 345.063 229.722 343.89 229.301 342.787C228.879 341.685 228.214 340.68 227.348 339.837C226.481 338.995 225.435 338.335 224.277 337.902C223.119 337.468 221.876 337.271 220.631 337.322C213.196 337.803 206.33 348.636 204.718 354.712C204.623 355.104 203.96 359.808 203.675 362.231C203.428 360.235 203.182 358.257 202.954 356.191C202.613 353.197 202.347 350.044 202.082 346.979C202.082 345.376 201.911 343.772 201.835 342.151C201.759 340.529 201.835 338.943 201.835 337.304C201.835 334.917 202.025 332.44 202.158 329.981C205.42 329.839 214.96 329.251 219.227 327.22C223.494 325.189 228.71 321.322 229.677 316.529C229.943 315.397 229.953 314.226 229.707 313.09C229.462 311.954 228.966 310.879 228.251 309.934C227.536 308.989 226.619 308.195 225.558 307.603C224.497 307.012 223.316 306.635 222.091 306.498C214.675 305.928 206.122 315.656 203.58 321.429C203.485 321.607 203.087 322.89 202.613 324.405C202.841 321.999 203.049 319.594 203.372 317.171C204.244 310.311 205.382 303.327 206.482 296.325C206.71 294.864 206.918 293.42 207.146 291.959C209.877 291.835 220.232 291.3 224.727 289.18C229.222 287.06 234.21 283.264 235.178 278.489C235.446 277.357 235.459 276.185 235.214 275.048C234.97 273.911 234.474 272.835 233.759 271.889C233.044 270.943 232.125 270.149 231.063 269.558C230 268.967 228.818 268.593 227.591 268.458C220.156 267.888 211.622 277.616 209.061 283.389C209.061 283.585 208.492 285.171 207.961 286.81C208.511 283.015 208.986 279.202 209.346 275.425C210.013 268.912 210.21 262.364 209.934 255.826C210.901 255.826 223.039 255.38 228.046 253.029C232.503 250.944 237.529 247.131 238.497 242.338C238.765 241.207 238.778 240.035 238.533 238.899C238.288 237.764 237.792 236.689 237.077 235.744C236.362 234.8 235.443 234.008 234.381 233.419C233.318 232.83 232.136 232.457 230.91 232.325C223.476 231.737 214.941 241.483 212.38 247.238C212.191 247.648 210.484 253.171 209.972 255.149C209.962 255.072 209.962 254.994 209.972 254.917C209.533 248.518 208.492 242.168 206.861 235.942C205.43 230.374 203.657 224.889 201.551 219.514C199.654 214.525 197.587 210.053 195.728 206.116C194.704 203.978 193.718 202.053 192.789 200.272H192.94C193.073 200.272 192.713 191.808 192.637 191.363C191.613 185.198 185.79 173.831 178.431 172.726C177.204 172.573 175.957 172.665 174.77 172.995C173.584 173.326 172.485 173.888 171.545 174.644C170.606 175.401 169.846 176.335 169.317 177.386C168.788 178.437 168.501 179.581 168.474 180.744C168.171 185.679 172.097 190.508 175.871 193.537C179.645 196.566 189.849 199.523 192.352 200.2C193.282 202.089 194.249 204.102 195.292 206.347C197.056 210.32 199.085 214.81 200.773 219.835C201.247 221.171 201.703 222.632 202.177 224.022C200.868 221.813 199.028 218.802 198.801 218.534C194.875 213.492 184.121 205.92 177.066 208.129C175.902 208.523 174.84 209.144 173.948 209.95C173.057 210.757 172.357 211.731 171.893 212.808C171.43 213.886 171.213 215.044 171.258 216.205C171.303 217.367 171.608 218.506 172.154 219.55C174.297 224.058 180.157 226.677 185.013 227.692C189.868 228.708 200.678 226.908 202.992 226.481C203.979 229.599 204.889 232.824 205.685 236.245C207.119 242.392 207.97 248.647 208.227 254.935C208.227 255.309 208.227 255.683 208.227 256.057C207.772 254.846 204.813 248.449 204.566 248.022C201.247 242.677 191.442 233.964 184.159 235.425C182.954 235.699 181.825 236.208 180.844 236.919C179.862 237.631 179.052 238.529 178.465 239.554C177.878 240.58 177.528 241.71 177.437 242.871C177.346 244.032 177.517 245.199 177.938 246.294C179.55 250.98 185.088 254.169 189.773 255.701C195.178 257.483 207.753 256.343 208.208 256.307C208.311 262.616 207.975 268.925 207.203 275.193C206.653 279.844 205.894 284.529 205.079 289.215C204.453 287.665 201.722 281.714 201.456 281.305C198.156 275.959 188.351 267.265 181.068 268.726C179.865 269 178.738 269.508 177.758 270.219C176.779 270.929 175.969 271.825 175.383 272.848C174.796 273.872 174.445 275 174.353 276.159C174.26 277.318 174.429 278.482 174.847 279.576C176.459 284.28 181.978 287.452 186.682 289.002C191.954 290.783 203.997 289.697 205.022 289.607C204.642 291.728 204.282 293.866 203.903 296.004C202.632 302.953 201.342 309.937 200.299 316.85C199.92 319.255 199.654 321.625 199.389 323.977C198.384 321.679 196.468 317.545 196.259 317.206C192.94 311.861 183.135 303.149 175.852 304.627C174.65 304.901 173.522 305.41 172.543 306.12C171.563 306.831 170.754 307.727 170.167 308.75C169.58 309.774 169.229 310.901 169.137 312.061C169.045 313.22 169.213 314.384 169.631 315.478C171.243 320.182 176.762 323.353 181.466 324.903C186.169 326.454 196.316 325.777 199.18 325.563C198.744 329.518 198.421 333.456 198.289 337.34C198.289 339.015 198.118 340.743 198.289 342.347C198.459 343.95 198.289 345.589 198.403 347.175C198.63 350.471 198.801 353.536 199.085 356.6C199.218 358.151 199.37 359.612 199.521 361.108C198.877 358.649 197.777 354.747 197.625 354.409C195.216 348.583 186.928 338.658 179.474 339.068C178.242 339.172 177.047 339.517 175.966 340.082C174.884 340.646 173.941 341.418 173.198 342.347C172.454 343.276 171.926 344.341 171.648 345.473C171.37 346.606 171.349 347.78 171.585 348.921C172.419 353.785 177.274 357.723 181.75 359.914C186.606 362.32 198.27 363.033 199.692 363.122C200.072 366.792 200.489 370.373 200.925 373.705C202.328 384.289 203.903 393.037 205.097 399.166C206.292 405.295 207.146 408.769 207.146 408.769C207.203 409.105 207.334 409.427 207.53 409.712C207.726 409.998 207.983 410.243 208.285 410.431C208.587 410.619 208.927 410.746 209.284 410.804C209.641 410.862 210.007 410.849 210.358 410.768C210.71 410.686 211.04 410.537 211.326 410.329C211.613 410.122 211.851 409.861 212.026 409.562C212.2 409.264 212.306 408.935 212.337 408.596C212.369 408.257 212.326 407.916 212.21 407.594C212.21 407.594 211.224 404.333 209.896 398.293Z" fill="#425C50"/>
<path opacity="0.1" d="M203.523 225.18C203.523 225.18 216.041 221.617 220.384 217.929C224.177 214.828 227.97 209.893 227.42 204.957C227.361 203.797 227.042 202.662 226.484 201.625C225.927 200.589 225.143 199.674 224.184 198.941C223.224 198.208 222.112 197.674 220.918 197.372C219.724 197.07 218.476 197.008 217.255 197.189C209.934 198.472 204.415 209.982 203.58 216.182C203.504 216.717 203.391 225.216 203.523 225.18Z" fill="#425C50"/>
</g>
<path d="M611.007 442.747C611.254 498.569 658.536 543.646 658.536 543.646C658.536 543.646 705.42 498.194 705.154 442.373C704.889 386.551 657.72 341.474 657.72 341.474C657.72 341.474 610.742 386.925 611.007 442.747Z" fill="#425C50"/>
<path d="M658.536 543.646L657.625 341.474" stroke="white" stroke-width="0.910297" stroke-miterlimit="10"/>
<path d="M657.948 413.331L631.49 391.825" stroke="white" stroke-width="0.910297" stroke-miterlimit="10"/>
<path d="M658.517 446.738L690.949 402.195" stroke="white" stroke-width="0.910297" stroke-miterlimit="10"/>
<path d="M658.194 465.999L619.125 433.536" stroke="white" stroke-width="0.910297" stroke-miterlimit="10"/>
<path d="M658.726 491.941L697.075 459.549" stroke="white" stroke-width="0.910297" stroke-miterlimit="10"/>
<path d="M658.82 514.337L628.607 492.065" stroke="white" stroke-width="0.910297" stroke-miterlimit="10"/>
<path d="M578.784 528.911C601.752 553.107 640.651 555.637 640.651 555.637C640.651 555.637 642.377 518.987 619.409 494.863C596.441 470.738 557.466 468.279 557.466 468.279C557.466 468.279 555.816 504.858 578.784 528.911Z" fill="#425C50"/>
<path d="M640.727 555.566L557.542 468.208" stroke="white" stroke-width="0.910297" stroke-miterlimit="10"/>
<path d="M587.11 499.246L566.816 499.477" stroke="white" stroke-width="0.910297" stroke-miterlimit="10"/>
<path d="M601.031 513.535L596.859 482.497" stroke="white" stroke-width="0.910297" stroke-miterlimit="10"/>
<path d="M608.769 522.016L578.537 522.052" stroke="white" stroke-width="0.910297" stroke-miterlimit="10"/>
<path d="M619.637 533.063L623.013 505.161" stroke="white" stroke-width="0.910297" stroke-miterlimit="10"/>
<path d="M628.854 542.755L606.626 544.003" stroke="white" stroke-width="0.910297" stroke-miterlimit="10"/>
<path d="M698.573 493.615C674.676 516.938 674.979 553.624 674.979 553.624C674.979 553.624 714.011 552.502 737.908 529.179C761.806 505.856 761.502 469.17 761.502 469.17C761.502 469.17 722.47 470.293 698.573 493.615Z" fill="#425C50"/>
<path d="M674.979 553.624L761.502 469.17" stroke="white" stroke-width="0.910297" stroke-miterlimit="10"/>
<path d="M730.758 499.192L728.994 480.199" stroke="white" stroke-width="0.910297" stroke-miterlimit="10"/>
<path d="M716.628 513.304L749.269 507.085" stroke="white" stroke-width="0.910297" stroke-miterlimit="10"/>
<path d="M708.208 521.197L705.913 492.867" stroke="white" stroke-width="0.910297" stroke-miterlimit="10"/>
<path d="M697.283 532.19L727.155 533.259" stroke="white" stroke-width="0.910297" stroke-miterlimit="10"/>
<path d="M687.687 541.544L684.69 520.805" stroke="white" stroke-width="0.910297" stroke-miterlimit="10"/>
<g opacity="0.1">
<path opacity="0.1" d="M611.007 442.747C611.254 498.569 658.536 543.646 658.536 543.646C658.536 543.646 705.42 498.194 705.154 442.373C704.889 386.551 657.72 341.474 657.72 341.474C657.72 341.474 610.742 386.925 611.007 442.747Z" fill="#425C50"/>
<path opacity="0.1" d="M578.784 528.911C601.752 553.107 640.651 555.637 640.651 555.637C640.651 555.637 642.377 518.987 619.409 494.863C596.441 470.738 557.466 468.279 557.466 468.279C557.466 468.279 555.816 504.858 578.784 528.911Z" fill="#425C50"/>
<path opacity="0.1" d="M698.573 493.615C674.676 516.938 674.979 553.624 674.979 553.624C674.979 553.624 714.011 552.502 737.908 529.179C761.806 505.856 761.502 469.17 761.502 469.17C761.502 469.17 722.47 470.293 698.573 493.615Z" fill="#425C50"/>
</g>
<path d="M624.473 -13.1261H156.62V552.591H624.473V-13.1261Z" fill="#EEEEEE" stroke="#263238" stroke-width="0.987488" stroke-linecap="round" stroke-linejoin="round"/>
<g style="mix-blend-mode:multiply">
<path d="M231.252 -13.1261H156.62V552.591H231.252V-13.1261Z" fill="#414042"/>
</g>
<path d="M520.521 70.4548H377.043V86.3121H520.521V70.4548Z" fill="#414042" stroke="#263238" stroke-width="0.987488" stroke-linecap="round" stroke-linejoin="round"/>
<path d="M608.788 205.563H215.491V221.421H608.788V205.563Z" fill="#414042"/>
<path d="M608.788 423.504H215.491V439.362H608.788V423.504Z" fill="#414042"/>
<path d="M467.473 97.7687H377.043V113.626H467.473V97.7687Z" fill="#414042" stroke="#263238" stroke-width="0.987488" stroke-linecap="round" stroke-linejoin="round"/>
<path d="M467.473 124.512H377.043V140.37H467.473V124.512Z" fill="#414042" stroke="#263238" stroke-width="0.987488" stroke-linecap="round" stroke-linejoin="round"/>
<path d="M364.601 238.882H355.289V247.63H364.601V238.882Z" fill="#414042" stroke="#263238" stroke-width="0.987488" stroke-linecap="round" stroke-linejoin="round"/>
<path d="M364.601 351.398H355.289V360.146H364.601V351.398Z" fill="#414042" stroke="#263238" stroke-width="0.987488" stroke-linecap="round" stroke-linejoin="round"/>
<path d="M496.016 238.882H486.704V247.63H496.016V238.882Z" fill="#414042" stroke="#263238" stroke-width="0.987488" stroke-linecap="round" stroke-linejoin="round"/>
<path d="M496.016 351.398H486.704V360.146H496.016V351.398Z" fill="#414042" stroke="#263238" stroke-width="0.987488" stroke-linecap="round" stroke-linejoin="round"/>
<path d="M624.473 -13.1261H156.62V15.6488H624.473V-13.1261Z" fill="#263238" stroke="#263238" stroke-width="0.987488" stroke-linecap="round" stroke-linejoin="round"/>
<path d="M462.048 244.957H379.698C378.994 244.957 378.319 244.695 377.821 244.227C377.323 243.759 377.043 243.124 377.043 242.463C377.043 241.801 377.323 241.167 377.821 240.699C378.319 240.231 378.994 239.969 379.698 239.969H462.048C462.753 239.969 463.428 240.231 463.926 240.699C464.424 241.167 464.704 241.801 464.704 242.463C464.704 243.124 464.424 243.759 463.926 244.227C463.428 244.695 462.753 244.957 462.048 244.957Z" fill="#263238"/>
<path d="M462.048 257.447H379.698C378.992 257.443 378.317 257.176 377.82 256.705C377.322 256.235 377.043 255.598 377.043 254.935C377.043 254.273 377.323 253.639 377.821 253.171C378.319 252.703 378.994 252.441 379.698 252.441H462.048C462.753 252.441 463.428 252.703 463.926 253.171C464.424 253.639 464.704 254.273 464.704 254.935C464.704 255.598 464.425 256.235 463.927 256.705C463.43 257.176 462.754 257.443 462.048 257.447Z" fill="#263238"/>
<path d="M462.048 269.919H379.698C378.994 269.919 378.319 269.657 377.821 269.189C377.323 268.721 377.043 268.086 377.043 267.425C377.043 266.763 377.323 266.129 377.821 265.661C378.319 265.193 378.994 264.93 379.698 264.93H462.048C462.753 264.93 463.428 265.193 463.926 265.661C464.424 266.129 464.704 266.763 464.704 267.425C464.704 268.086 464.424 268.721 463.926 269.189C463.428 269.657 462.753 269.919 462.048 269.919Z" fill="#263238"/>
<path d="M462.048 282.391H379.698C378.994 282.391 378.319 282.129 377.821 281.661C377.323 281.193 377.043 280.559 377.043 279.897C377.043 279.235 377.323 278.601 377.821 278.133C378.319 277.665 378.994 277.403 379.698 277.403H462.048C462.753 277.403 463.428 277.665 463.926 278.133C464.424 278.601 464.704 279.235 464.704 279.897C464.704 280.559 464.424 281.193 463.926 281.661C463.428 282.129 462.753 282.391 462.048 282.391Z" fill="#263238"/>
<path d="M462.048 294.864H379.698C378.994 294.864 378.319 294.601 377.821 294.133C377.323 293.665 377.043 293.031 377.043 292.369C377.043 291.708 377.323 291.073 377.821 290.605C378.319 290.138 378.994 289.875 379.698 289.875H462.048C462.753 289.875 463.428 290.138 463.926 290.605C464.424 291.073 464.704 291.708 464.704 292.369C464.704 293.031 464.424 293.665 463.926 294.133C463.428 294.601 462.753 294.864 462.048 294.864Z" fill="#263238"/>
<path d="M586.617 244.957H504.267C503.563 244.957 502.887 244.695 502.389 244.227C501.891 243.759 501.612 243.124 501.612 242.463C501.612 241.801 501.891 241.167 502.389 240.699C502.887 240.231 503.563 239.969 504.267 239.969H586.617C587.321 239.969 587.997 240.231 588.495 240.699C588.993 241.167 589.272 241.801 589.272 242.463C589.272 243.124 588.993 243.759 588.495 244.227C587.997 244.695 587.321 244.957 586.617 244.957Z" fill="#263238"/>
<path d="M586.617 257.447H504.267C503.561 257.443 502.885 257.176 502.388 256.705C501.891 256.235 501.612 255.598 501.612 254.935C501.612 254.273 501.891 253.639 502.389 253.171C502.887 252.703 503.563 252.441 504.267 252.441H586.617C587.321 252.441 587.997 252.703 588.495 253.171C588.993 253.639 589.272 254.273 589.272 254.935C589.272 255.598 588.993 256.235 588.496 256.705C587.998 257.176 587.323 257.443 586.617 257.447Z" fill="#263238"/>
<path d="M586.617 269.919H504.267C503.563 269.919 502.887 269.657 502.389 269.189C501.891 268.721 501.612 268.086 501.612 267.425C501.612 266.763 501.891 266.129 502.389 265.661C502.887 265.193 503.563 264.93 504.267 264.93H586.617C587.321 264.93 587.997 265.193 588.495 265.661C588.993 266.129 589.272 266.763 589.272 267.425C589.272 268.086 588.993 268.721 588.495 269.189C587.997 269.657 587.321 269.919 586.617 269.919Z" fill="#263238"/>
<path d="M586.617 282.391H504.267C503.563 282.391 502.887 282.129 502.389 281.661C501.891 281.193 501.612 280.559 501.612 279.897C501.612 279.235 501.891 278.601 502.389 278.133C502.887 277.665 503.563 277.403 504.267 277.403H586.617C587.321 277.403 587.997 277.665 588.495 278.133C588.993 278.601 589.272 279.235 589.272 279.897C589.272 280.559 588.993 281.193 588.495 281.661C587.997 282.129 587.321 282.391 586.617 282.391Z" fill="#263238"/>
<path d="M586.617 294.864H504.267C503.563 294.864 502.887 294.601 502.389 294.133C501.891 293.665 501.612 293.031 501.612 292.369C501.612 291.708 501.891 291.073 502.389 290.605C502.887 290.138 503.563 289.875 504.267 289.875H586.617C587.321 289.875 587.997 290.138 588.495 290.605C588.993 291.073 589.272 291.708 589.272 292.369C589.272 293.031 588.993 293.665 588.495 294.133C587.997 294.601 587.321 294.864 586.617 294.864Z" fill="#263238"/>
<path d="M462.048 355.603H379.698C378.992 355.598 378.317 355.331 377.82 354.861C377.322 354.39 377.043 353.754 377.043 353.09C377.043 352.429 377.323 351.794 377.821 351.327C378.319 350.859 378.994 350.596 379.698 350.596H462.048C462.753 350.596 463.428 350.859 463.926 351.327C464.424 351.794 464.704 352.429 464.704 353.09C464.704 353.754 464.425 354.39 463.927 354.861C463.43 355.331 462.754 355.598 462.048 355.603Z" fill="#263238"/>
<path d="M462.048 368.075H379.698C378.994 368.075 378.319 367.812 377.821 367.344C377.323 366.876 377.043 366.242 377.043 365.58C377.043 364.919 377.323 364.284 377.821 363.817C378.319 363.349 378.994 363.086 379.698 363.086H462.048C462.753 363.086 463.428 363.349 463.926 363.817C464.424 364.284 464.704 364.919 464.704 365.58C464.704 366.242 464.424 366.876 463.926 367.344C463.428 367.812 462.753 368.075 462.048 368.075Z" fill="#263238"/>
<path d="M462.048 380.547H379.698C378.994 380.547 378.319 380.284 377.821 379.816C377.323 379.348 377.043 378.714 377.043 378.052C377.043 377.391 377.323 376.756 377.821 376.289C378.319 375.821 378.994 375.558 379.698 375.558H462.048C462.753 375.558 463.428 375.821 463.926 376.289C464.424 376.756 464.704 377.391 464.704 378.052C464.704 378.714 464.424 379.348 463.926 379.816C463.428 380.284 462.753 380.547 462.048 380.547Z" fill="#263238"/>
<path d="M462.048 393.019H379.698C378.994 393.019 378.319 392.756 377.821 392.288C377.323 391.821 377.043 391.186 377.043 390.525C377.043 389.863 377.323 389.229 377.821 388.761C378.319 388.293 378.994 388.03 379.698 388.03H462.048C462.753 388.03 463.428 388.293 463.926 388.761C464.424 389.229 464.704 389.863 464.704 390.525C464.704 391.186 464.424 391.821 463.926 392.288C463.428 392.756 462.753 393.019 462.048 393.019Z" fill="#263238"/>
<path d="M462.048 405.509H379.698C378.994 405.509 378.319 405.246 377.821 404.778C377.323 404.311 377.043 403.676 377.043 403.015C377.043 402.353 377.323 401.719 377.821 401.251C378.319 400.783 378.994 400.52 379.698 400.52H462.048C462.753 400.52 463.428 400.783 463.926 401.251C464.424 401.719 464.704 402.353 464.704 403.015C464.704 403.676 464.424 404.311 463.926 404.778C463.428 405.246 462.753 405.509 462.048 405.509Z" fill="#263238"/>
<path d="M586.617 355.603H504.267C503.561 355.598 502.885 355.331 502.388 354.861C501.891 354.39 501.612 353.754 501.612 353.09C501.612 352.429 501.891 351.794 502.389 351.327C502.887 350.859 503.563 350.596 504.267 350.596H586.617C587.321 350.596 587.997 350.859 588.495 351.327C588.993 351.794 589.272 352.429 589.272 353.09C589.272 353.754 588.993 354.39 588.496 354.861C587.998 355.331 587.323 355.598 586.617 355.603Z" fill="#263238"/>
<path d="M586.617 368.075H504.267C503.563 368.075 502.887 367.812 502.389 367.344C501.891 366.876 501.612 366.242 501.612 365.58C501.612 364.919 501.891 364.284 502.389 363.817C502.887 363.349 503.563 363.086 504.267 363.086H586.617C587.321 363.086 587.997 363.349 588.495 363.817C588.993 364.284 589.272 364.919 589.272 365.58C589.272 366.242 588.993 366.876 588.495 367.344C587.997 367.812 587.321 368.075 586.617 368.075Z" fill="#263238"/>
<path d="M586.617 380.547H504.267C503.563 380.547 502.887 380.284 502.389 379.816C501.891 379.348 501.612 378.714 501.612 378.052C501.612 377.391 501.891 376.756 502.389 376.289C502.887 375.821 503.563 375.558 504.267 375.558H586.617C587.321 375.558 587.997 375.821 588.495 376.289C588.993 376.756 589.272 377.391 589.272 378.052C589.272 378.714 588.993 379.348 588.495 379.816C587.997 380.284 587.321 380.547 586.617 380.547Z" fill="#263238"/>
<path d="M586.617 393.019H504.267C503.563 393.019 502.887 392.756 502.389 392.288C501.891 391.821 501.612 391.186 501.612 390.525C501.612 389.863 501.891 389.229 502.389 388.761C502.887 388.293 503.563 388.03 504.267 388.03H586.617C587.321 388.03 587.997 388.293 588.495 388.761C588.993 389.229 589.272 389.863 589.272 390.525C589.272 391.186 588.993 391.821 588.495 392.288C587.997 392.756 587.321 393.019 586.617 393.019Z" fill="#263238"/>
<path d="M586.617 405.509H504.267C503.563 405.509 502.887 405.246 502.389 404.778C501.891 404.311 501.612 403.676 501.612 403.015C501.612 402.353 501.891 401.719 502.389 401.251C502.887 400.783 503.563 400.52 504.267 400.52H586.617C587.321 400.52 587.997 400.783 588.495 401.251C588.993 401.719 589.272 402.353 589.272 403.015C589.272 403.676 588.993 404.311 588.495 404.778C587.997 405.246 587.321 405.509 586.617 405.509Z" fill="#263238"/>
<path d="M586.617 462.453H504.267C503.563 462.453 502.887 462.19 502.389 461.722C501.891 461.255 501.612 460.62 501.612 459.959C501.612 459.297 501.891 458.663 502.389 458.195C502.887 457.727 503.563 457.464 504.267 457.464H586.617C587.321 457.464 587.997 457.727 588.495 458.195C588.993 458.663 589.272 459.297 589.272 459.959C589.272 460.62 588.993 461.255 588.495 461.722C587.997 462.19 587.321 462.453 586.617 462.453Z" fill="#263238"/>
<path d="M586.617 474.925H504.267C503.563 474.925 502.887 474.662 502.389 474.195C501.891 473.727 501.612 473.092 501.612 472.431C501.612 471.769 501.891 471.135 502.389 470.667C502.887 470.199 503.563 469.936 504.267 469.936H586.617C587.321 469.936 587.997 470.199 588.495 470.667C588.993 471.135 589.272 471.769 589.272 472.431C589.272 473.092 588.993 473.727 588.495 474.195C587.997 474.662 587.321 474.925 586.617 474.925Z" fill="#263238"/>
<path d="M586.617 487.415H504.267C503.563 487.415 502.887 487.152 502.389 486.684C501.891 486.217 501.612 485.582 501.612 484.921C501.612 484.259 501.891 483.625 502.389 483.157C502.887 482.689 503.563 482.426 504.267 482.426H586.617C587.321 482.426 587.997 482.689 588.495 483.157C588.993 483.625 589.272 484.259 589.272 484.921C589.272 485.582 588.993 486.217 588.495 486.684C587.997 487.152 587.321 487.415 586.617 487.415Z" fill="#263238"/>
<path d="M586.617 494.898H504.267C502.8 494.898 501.612 496.015 501.612 497.393C501.612 498.77 502.8 499.887 504.267 499.887H586.617C588.084 499.887 589.272 498.77 589.272 497.393C589.272 496.015 588.084 494.898 586.617 494.898Z" fill="#263238"/>
<path d="M586.617 512.359H504.267C503.563 512.359 502.887 512.096 502.389 511.629C501.891 511.161 501.612 510.526 501.612 509.865C501.612 509.203 501.891 508.569 502.389 508.101C502.887 507.633 503.563 507.37 504.267 507.37H586.617C587.321 507.37 587.997 507.633 588.495 508.101C588.993 508.569 589.272 509.203 589.272 509.865C589.272 510.526 588.993 511.161 588.495 511.629C587.997 512.096 587.321 512.359 586.617 512.359Z" fill="#263238"/>
<path d="M578.651 317.331C576.141 317.332 573.712 318.168 571.796 319.691C569.879 321.215 568.599 323.326 568.182 325.652H555.475C555.01 323.373 553.714 321.317 551.81 319.839C549.907 318.36 547.514 317.551 545.043 317.551C542.573 317.551 540.18 318.36 538.277 319.839C536.373 321.317 535.077 323.373 534.612 325.652H521.905C521.44 323.373 520.145 321.317 518.241 319.839C516.337 318.36 513.944 317.551 511.474 317.551C509.004 317.551 506.611 318.36 504.707 319.839C502.803 321.317 501.507 323.373 501.042 325.652H488.165C487.721 323.357 486.433 321.281 484.527 319.786C482.621 318.291 480.216 317.472 477.733 317.472C475.25 317.472 472.846 318.291 470.939 319.786C469.033 321.281 467.746 323.357 467.302 325.652H454.576C454.132 323.357 452.845 321.281 450.938 319.786C449.032 318.291 446.628 317.472 444.145 317.472C441.661 317.472 439.257 318.291 437.351 319.786C435.444 321.281 434.157 323.357 433.713 325.652H420.987C420.543 323.357 419.256 321.281 417.35 319.786C415.443 318.291 413.039 317.472 410.556 317.472C408.073 317.472 405.668 318.291 403.762 319.786C401.856 321.281 400.568 323.357 400.125 325.652H387.398C386.954 323.185 385.539 320.966 383.435 319.433C381.331 317.9 378.69 317.166 376.037 317.375C373.383 317.585 370.91 318.723 369.108 320.564C367.306 322.406 366.306 324.816 366.306 327.318C366.306 329.819 367.306 332.23 369.108 334.071C370.91 335.912 373.383 337.051 376.037 337.26C378.69 337.47 381.331 336.735 383.435 335.203C385.539 333.67 386.954 331.45 387.398 328.984H400.125C400.568 331.279 401.856 333.355 403.762 334.85C405.668 336.345 408.073 337.164 410.556 337.164C413.039 337.164 415.443 336.345 417.35 334.85C419.256 333.355 420.543 331.279 420.987 328.984H433.713C434.157 331.279 435.444 333.355 437.351 334.85C439.257 336.345 441.661 337.164 444.145 337.164C446.628 337.164 449.032 336.345 450.938 334.85C452.845 333.355 454.132 331.279 454.576 328.984H467.302C467.746 331.279 469.033 333.355 470.939 334.85C472.846 336.345 475.25 337.164 477.733 337.164C480.216 337.164 482.621 336.345 484.527 334.85C486.433 333.355 487.721 331.279 488.165 328.984H500.891C501.355 331.263 502.651 333.318 504.555 334.797C506.459 336.275 508.852 337.084 511.322 337.084C513.792 337.084 516.185 336.275 518.089 334.797C519.993 333.318 521.289 331.263 521.753 328.984H534.46C534.925 331.263 536.221 333.318 538.125 334.797C540.029 336.275 542.422 337.084 544.892 337.084C547.362 337.084 549.755 336.275 551.659 334.797C553.563 333.318 554.858 331.263 555.323 328.984H568.03C568.37 330.859 569.273 332.603 570.633 334.012C571.993 335.421 573.753 336.435 575.707 336.935C577.66 337.435 579.724 337.401 581.657 336.836C583.59 336.27 585.311 335.198 586.617 333.744C587.923 332.291 588.759 330.517 589.028 328.632C589.296 326.747 588.986 324.829 588.133 323.105C587.28 321.38 585.92 319.92 584.213 318.897C582.506 317.874 580.524 317.331 578.499 317.331H578.651Z" fill="#263238"/>
<path d="M330.918 458.391C327.376 458.387 323.912 459.371 320.966 461.217C318.019 463.063 315.721 465.688 314.363 468.761C313.005 471.834 312.648 475.217 313.337 478.481C314.025 481.745 315.729 484.743 318.232 487.097C320.735 489.451 323.925 491.055 327.399 491.705C330.872 492.356 334.473 492.024 337.746 490.751C341.019 489.479 343.816 487.323 345.784 484.557C347.752 481.79 348.803 478.538 348.803 475.21C348.805 473.002 348.344 470.816 347.447 468.775C346.549 466.735 345.232 464.88 343.571 463.318C341.91 461.756 339.937 460.517 337.766 459.671C335.595 458.826 333.268 458.391 330.918 458.391ZM330.918 483.584C329.149 483.588 327.42 483.098 325.948 482.177C324.476 481.257 323.328 479.946 322.649 478.412C321.971 476.878 321.792 475.189 322.137 473.56C322.481 471.93 323.332 470.433 324.582 469.258C325.833 468.084 327.426 467.284 329.161 466.961C330.895 466.638 332.693 466.805 334.326 467.443C335.959 468.08 337.354 469.158 338.334 470.541C339.314 471.924 339.835 473.549 339.832 475.21C339.827 477.43 338.886 479.557 337.215 481.126C335.545 482.696 333.28 483.58 330.918 483.584Z" fill="#414042" stroke="#263238" stroke-width="0.987488" stroke-linecap="round" stroke-linejoin="round"/>
<path d="M336.247 481.892L344.782 485.794C346.912 483.334 348.257 480.358 348.662 477.21C349.067 474.062 348.516 470.87 347.072 468.004C345.628 465.138 343.35 462.714 340.501 461.013C337.653 459.312 334.35 458.403 330.975 458.391V466.818C332.837 466.837 334.647 467.403 336.15 468.438C337.652 469.472 338.772 470.923 339.352 472.586C339.932 474.249 339.942 476.041 339.382 477.71C338.821 479.38 337.719 480.842 336.228 481.892H336.247Z" fill="#263238" stroke="#263238" stroke-width="0.987488" stroke-linecap="round" stroke-linejoin="round"/>
<path d="M339.528 512.876H322.459C321.899 512.878 321.345 512.777 320.827 512.577C320.31 512.378 319.839 512.084 319.443 511.713C319.046 511.342 318.731 510.902 318.517 510.416C318.302 509.931 318.192 509.41 318.192 508.885C318.192 507.822 318.641 506.802 319.441 506.05C320.242 505.298 321.327 504.876 322.459 504.876H339.528C340.66 504.876 341.745 505.298 342.546 506.05C343.346 506.802 343.796 507.822 343.796 508.885C343.796 509.41 343.685 509.931 343.47 510.416C343.256 510.902 342.941 511.342 342.545 511.713C342.148 512.084 341.678 512.378 341.16 512.577C340.642 512.777 340.088 512.878 339.528 512.876Z" fill="#414042" stroke="#263238" stroke-width="0.987488" stroke-linecap="round" stroke-linejoin="round"/>
<path d="M384.269 458.391C380.728 458.391 377.266 459.377 374.322 461.225C371.378 463.073 369.083 465.7 367.728 468.774C366.373 471.847 366.018 475.229 366.709 478.492C367.4 481.754 369.105 484.751 371.609 487.103C374.113 489.456 377.303 491.058 380.776 491.707C384.249 492.356 387.849 492.022 391.12 490.749C394.392 489.476 397.188 487.321 399.155 484.555C401.123 481.789 402.173 478.537 402.173 475.21C402.175 473.001 401.714 470.813 400.815 468.771C399.916 466.729 398.598 464.874 396.934 463.312C395.271 461.75 393.297 460.511 391.123 459.666C388.95 458.822 386.621 458.388 384.269 458.391ZM384.269 483.584C382.501 483.584 380.774 483.092 379.304 482.169C377.835 481.246 376.69 479.934 376.014 478.4C375.339 476.865 375.163 475.177 375.509 473.549C375.855 471.92 376.708 470.425 377.959 469.252C379.21 468.079 380.804 467.281 382.538 466.96C384.272 466.638 386.069 466.807 387.701 467.444C389.333 468.082 390.726 469.161 391.706 470.543C392.685 471.925 393.206 473.55 393.202 475.21C393.202 476.311 392.971 477.402 392.522 478.419C392.072 479.436 391.414 480.36 390.584 481.138C389.755 481.916 388.77 482.532 387.686 482.952C386.602 483.372 385.441 483.587 384.269 483.584Z" fill="#414042" stroke="#263238" stroke-width="0.987488" stroke-linecap="round" stroke-linejoin="round"/>
<path d="M402.078 473.446C401.608 469.331 399.543 465.523 396.276 462.746C393.009 459.97 388.769 458.42 384.364 458.391V466.818C386.716 466.842 388.964 467.736 390.619 469.308C392.274 470.879 393.202 473 393.202 475.21C393.183 475.533 393.145 475.854 393.088 476.172L402.078 473.446Z" fill="#263238" stroke="#263238" stroke-width="0.987488" stroke-linecap="round" stroke-linejoin="round"/>
<path d="M392.804 512.876H375.734C375.175 512.878 374.62 512.777 374.103 512.577C373.585 512.378 373.115 512.084 372.718 511.713C372.322 511.342 372.007 510.902 371.792 510.416C371.578 509.931 371.467 509.41 371.467 508.885C371.467 507.822 371.917 506.802 372.717 506.05C373.517 505.298 374.603 504.876 375.734 504.876H392.804C393.936 504.876 395.021 505.298 395.821 506.05C396.622 506.802 397.071 507.822 397.071 508.885C397.071 509.41 396.961 509.931 396.746 510.416C396.531 510.902 396.217 511.342 395.82 511.713C395.424 512.084 394.953 512.378 394.435 512.577C393.918 512.777 393.363 512.878 392.804 512.876Z" fill="#414042" stroke="#263238" stroke-width="0.987488" stroke-linecap="round" stroke-linejoin="round"/>
<path d="M437.943 458.391C434.402 458.391 430.94 459.377 427.996 461.225C425.052 463.073 422.757 465.7 421.402 468.774C420.047 471.847 419.692 475.229 420.383 478.492C421.074 481.754 422.779 484.751 425.283 487.103C427.787 489.456 430.977 491.058 434.45 491.707C437.923 492.356 441.523 492.022 444.794 490.749C448.066 489.476 450.862 487.321 452.829 484.555C454.797 481.789 455.847 478.537 455.847 475.21C455.849 473.001 455.388 470.813 454.489 468.771C453.59 466.729 452.271 464.874 450.608 463.312C448.945 461.75 446.97 460.511 444.797 459.666C442.624 458.822 440.295 458.388 437.943 458.391ZM437.943 483.584C436.175 483.584 434.447 483.092 432.978 482.169C431.508 481.246 430.363 479.934 429.688 478.4C429.012 476.865 428.837 475.177 429.183 473.549C429.529 471.92 430.382 470.425 431.633 469.252C432.884 468.079 434.478 467.281 436.212 466.96C437.946 466.638 439.742 466.807 441.374 467.444C443.006 468.082 444.4 469.161 445.379 470.543C446.359 471.925 446.879 473.55 446.876 475.21C446.876 476.311 446.644 477.402 446.195 478.419C445.746 479.436 445.088 480.36 444.258 481.138C443.428 481.916 442.443 482.532 441.36 482.952C440.276 483.372 439.115 483.587 437.943 483.584Z" fill="#414042" stroke="#263238" stroke-width="0.987488" stroke-linecap="round" stroke-linejoin="round"/>
<path d="M438.038 458.391V466.818C439.541 466.82 441.019 467.179 442.336 467.861C443.652 468.542 444.764 469.525 445.569 470.718C446.374 471.911 446.845 473.275 446.939 474.685C447.033 476.094 446.747 477.503 446.108 478.781C445.468 480.059 444.495 481.165 443.28 481.996C442.064 482.827 440.645 483.356 439.154 483.535C437.663 483.713 436.148 483.536 434.749 483.018C433.35 482.5 432.114 481.659 431.153 480.573L424.06 485.776C425.96 487.977 428.421 489.69 431.215 490.757C434.009 491.824 437.045 492.21 440.041 491.879C443.036 491.548 445.894 490.51 448.348 488.863C450.802 487.215 452.773 485.012 454.077 482.457C455.381 479.902 455.976 477.079 455.807 474.249C455.638 471.42 454.71 468.678 453.109 466.276C451.508 463.874 449.287 461.892 446.652 460.513C444.017 459.135 441.054 458.405 438.038 458.391Z" fill="#263238" stroke="#263238" stroke-width="0.987488" stroke-linecap="round" stroke-linejoin="round"/>
<path d="M446.477 512.876H429.408C428.849 512.878 428.294 512.777 427.776 512.577C427.259 512.378 426.788 512.084 426.392 511.713C425.995 511.343 425.681 510.902 425.466 510.416C425.251 509.931 425.141 509.411 425.141 508.885C425.138 508.358 425.247 507.835 425.46 507.348C425.674 506.861 425.988 506.418 426.385 506.045C426.782 505.672 427.253 505.377 427.772 505.176C428.291 504.976 428.847 504.874 429.408 504.876H446.477C447.609 504.876 448.695 505.298 449.495 506.05C450.295 506.802 450.745 507.822 450.745 508.885C450.745 509.411 450.634 509.931 450.42 510.416C450.205 510.902 449.89 511.343 449.494 511.713C449.097 512.084 448.627 512.378 448.109 512.577C447.591 512.777 447.037 512.878 446.477 512.876Z" fill="#414042" stroke="#263238" stroke-width="0.987488" stroke-linecap="round" stroke-linejoin="round"/>
<path d="M254.124 199.149C298.369 199.149 334.237 165.454 334.237 123.889C334.237 82.3237 298.369 48.6286 254.124 48.6286C209.88 48.6286 174.012 82.3237 174.012 123.889C174.012 165.454 209.88 199.149 254.124 199.149Z" fill="white"/>
<path d="M278.401 542.595C278.401 542.595 289.97 558.934 288.377 565.401C286.784 571.869 276.618 569.873 271.801 562.907C266.983 555.94 254.731 545.535 256.95 541.063C259.169 536.591 274.077 538.622 278.401 542.595Z" fill="white" stroke="#263238" stroke-width="1.02307" stroke-linecap="round" stroke-linejoin="round"/>
<path d="M228.691 541.687C228.691 541.687 214.713 561.179 216.951 566.506C219.189 571.833 226.434 570.248 231.972 565.437C237.51 560.626 248.567 547.121 248.567 547.121C248.567 547.121 239.274 536.359 228.691 541.687Z" fill="white" stroke="#263238" stroke-width="1.02307" stroke-linecap="round" stroke-linejoin="round"/>
<path d="M216.951 566.506C220.742 566.996 224.598 566.288 227.914 564.493C234.286 561.464 245.4 547.798 245.4 547.798" stroke="#263238" stroke-width="0.767303" stroke-linecap="round" stroke-linejoin="round"/>
<path d="M260.838 544.323C260.838 544.323 266.889 555.014 273.697 561.072C280.506 567.129 283.844 568.858 288.32 565.401" stroke="#263238" stroke-width="0.767303" stroke-linecap="round" stroke-linejoin="round"/>
<path d="M209.061 298.445C209.061 298.445 196.828 321.892 197.378 331.478C197.928 341.064 200.166 389.562 203.504 405.545C206.842 421.527 210.123 461.331 212.399 477.241C214.675 493.152 229.26 530.426 229.26 530.426C229.26 530.426 227.022 538.96 228.691 541.615C230.36 544.27 248.018 548.653 248.568 547.049C249.118 545.446 251.906 540.653 252.361 535.86C252.816 531.067 244.585 479.914 247.923 468.725C251.261 457.535 251.906 382.311 252.361 374.56C252.816 366.81 252.228 353.18 252.228 353.18C253.22 353.466 254.28 353.469 255.274 353.186C256.267 352.904 257.148 352.349 257.804 351.594C260.023 348.921 267.382 421.349 269.62 438.4C271.858 455.451 266.832 460.244 265.163 470.898C263.494 481.553 259.606 516.172 259.606 520.448C259.606 524.724 254.599 538.551 256.818 541.223C259.037 543.896 263.759 543.45 265.694 543.949C271.497 545.464 276.03 543.094 278.249 542.56C280.468 542.025 282.346 534.31 282.346 534.31C282.346 534.31 300.212 486.88 303.55 467.157C306.888 447.433 312.445 410.836 311.345 388.458C310.245 366.079 303.55 320.752 303.55 320.752L301.881 307.425L209.061 298.445Z" fill="#263238" stroke="#263238" stroke-width="1.02307" stroke-linecap="round" stroke-linejoin="round"/>
<path d="M201.247 325.563C201.247 325.563 200.166 338.712 209.327 347.3" stroke="white" stroke-width="0.506629" stroke-linecap="round" stroke-linejoin="round"/>
<path d="M201.778 344.271C201.778 344.271 207.165 352.877 213.632 353.874" stroke="white" stroke-width="0.506629" stroke-linecap="round" stroke-linejoin="round"/>
<path d="M244.831 488.163C244.831 488.163 237.245 505.161 236.221 514.444C235.196 523.727 244.831 520.11 246.993 526.292C249.155 532.475 234.077 531.976 236.771 533.508C239.464 535.041 247.524 536.092 247.524 536.092" stroke="white" stroke-width="0.511535" stroke-linecap="round" stroke-linejoin="round"/>
<path d="M259.435 530.426C261.047 529.909 279.349 526.862 277.187 517.544C275.025 508.226 264.271 507.744 265.808 496.929C267.344 486.114 284.091 462.382 284.091 455.682C284.091 448.983 272.256 424.021 271.175 408.556" stroke="white" stroke-width="0.511535" stroke-linecap="round" stroke-linejoin="round"/>
<path d="M285.741 324.565C285.741 324.565 273.356 341.242 271.744 343.772C270.132 346.302 286.272 332.654 286.272 332.654" stroke="white" stroke-width="0.506629" stroke-linecap="round" stroke-linejoin="round"/>
<path d="M253.347 318.667C253.347 318.667 254.694 330.854 254.694 333.367V347.246" stroke="white" stroke-width="0.506629" stroke-linecap="round" stroke-linejoin="round"/>
<path d="M254.693 339.692C254.693 339.692 260.516 338.854 261.844 334.65C263.171 330.445 262.754 322.035 262.754 322.035" stroke="white" stroke-width="0.506629" stroke-linecap="round" stroke-linejoin="round"/>
<path d="M367.067 174.062C360.391 155.764 359.272 145.84 358.722 140.619C358.172 135.399 352.046 136.949 352.046 136.949C352.046 136.949 338.77 144.272 338.77 145.858C338.77 147.443 344.896 186.107 345.996 192.895C346.664 196.875 347.037 200.894 347.115 204.922C347.115 204.922 323.749 181.403 317.623 175.648C312.957 171.247 309.259 167.488 305.295 165.243C303.152 163.461 299.434 162.802 293.706 161.02C283.692 157.884 273.128 150.561 260.876 151.078C252.833 151.597 244.937 153.367 237.51 156.316C237.51 156.316 219.72 164.156 207.468 169.376C206.041 169.975 204.687 170.716 203.428 171.586C201.418 171.354 197.227 172.37 192.447 182.436C185.79 196.548 155.748 233.661 150.722 246.721C145.696 259.781 156.279 272.859 167.962 283.3C176.391 291.087 184.375 299.288 191.878 307.87L205.154 292.512C205.53 295.929 206.164 299.317 207.051 302.65C208.72 307.87 214.277 313.625 236.543 315.122C258.809 316.618 308.822 319.505 307.191 308.85C304.896 293.705 306.072 245.082 304.972 232.022C304.647 223.645 304.83 215.257 305.522 206.9C308.083 209.946 313.109 215.594 316.617 217.822C321.624 220.957 342.79 235.639 351.135 238.81C359.48 241.982 371.163 236.726 376.171 226.338C381.178 215.951 373.743 192.361 367.067 174.062ZM185.714 260.815C183.476 252.458 182.376 249.323 182.376 249.323C182.376 249.323 196.639 234.891 203.504 227.193C204.434 247.844 205.022 270.436 204.377 273.75C203.871 279.306 204.004 284.898 204.775 290.427C201.058 285.634 187.611 268.013 185.714 260.815Z" fill="#38A755" stroke="#263238" stroke-width="1.01326" stroke-linecap="round" stroke-linejoin="round"/>
<path opacity="0.1" d="M367.067 174.062C360.391 155.764 359.272 145.84 358.722 140.619C358.172 135.399 352.046 136.949 352.046 136.949C352.046 136.949 338.77 144.272 338.77 145.858C338.77 147.443 344.896 186.107 345.996 192.895C346.664 196.875 347.037 200.894 347.115 204.922C347.115 204.922 323.749 181.403 317.623 175.648C312.957 171.247 309.259 167.488 305.295 165.243C303.152 163.461 299.434 162.802 293.706 161.02C283.692 157.884 273.128 150.561 260.876 151.078C252.833 151.597 244.937 153.367 237.51 156.316C237.51 156.316 219.72 164.156 207.468 169.376C206.041 169.975 204.687 170.716 203.428 171.586C201.418 171.354 197.227 172.37 192.447 182.436C185.79 196.548 155.748 233.661 150.722 246.721C145.696 259.781 156.279 272.859 167.962 283.3C176.391 291.087 184.375 299.288 191.878 307.87L205.154 292.512C205.53 295.929 206.164 299.317 207.051 302.65C208.72 307.87 214.277 313.625 236.543 315.122C258.809 316.618 308.822 319.505 307.191 308.85C304.896 293.705 306.072 245.082 304.972 232.022C304.647 223.645 304.83 215.257 305.522 206.9C308.083 209.946 313.109 215.594 316.617 217.822C321.624 220.957 342.79 235.639 351.135 238.81C359.48 241.982 371.163 236.726 376.171 226.338C381.178 215.951 373.743 192.361 367.067 174.062ZM185.714 260.815C183.476 252.458 182.376 249.323 182.376 249.323C182.376 249.323 196.639 234.891 203.504 227.193C204.434 247.844 205.022 270.436 204.377 273.75C203.871 279.306 204.004 284.898 204.775 290.427C201.058 285.634 187.611 268.013 185.714 260.815Z" fill="black"/>
<path d="M210.389 224.949C213.911 219.982 216.975 214.743 219.549 209.287" stroke="#263238" stroke-width="0.759943" stroke-linecap="round" stroke-linejoin="round"/>
<path d="M224.386 210.802C223.098 213.322 221.263 215.561 219 217.376" stroke="#263238" stroke-width="0.759943" stroke-linecap="round" stroke-linejoin="round"/>
<path d="M347.039 204.904C347.114 207.915 347.822 210.882 349.125 213.635C350.427 216.387 352.296 218.87 354.625 220.94" stroke="#263238" stroke-width="1.01326" stroke-linecap="round" stroke-linejoin="round"/>
<path d="M349.239 213.332C348.786 218.087 349.919 222.857 352.482 226.98" stroke="#263238" stroke-width="1.01326" stroke-linecap="round" stroke-linejoin="round"/>
<path d="M182.376 249.323C182.376 249.323 178.28 245.67 168.171 247.256" stroke="#263238" stroke-width="0.759943" stroke-linecap="round" stroke-linejoin="round"/>
<path d="M162.576 245.153C162.576 245.153 165.383 240.931 176.023 244.084" stroke="#263238" stroke-width="0.759943" stroke-linecap="round" stroke-linejoin="round"/>
<path d="M317.357 190.882C315.119 191.399 305.579 206.686 305.579 206.686L328.585 200.895" stroke="#263238" stroke-width="0.759943" stroke-linecap="round" stroke-linejoin="round"/>
<path d="M251.298 180.459C251.298 180.459 255.604 186.018 265.295 183.506C274.987 180.993 278.211 171.372 276.675 165.296C275.139 159.221 242.688 164.281 251.298 180.459Z" fill="white" stroke="#263238" stroke-width="1.01326" stroke-linecap="round" stroke-linejoin="round"/>
<path d="M242.081 145.84C242.081 145.84 235.576 149.902 234.722 153.572C233.869 157.243 236.012 169.02 237.738 173.082C239.464 177.145 245.116 186.499 245.116 186.499C245.116 186.499 264.594 175.933 265.978 175.114C267.363 174.294 281.151 181.617 284.167 180.459C287.182 179.301 276.808 154.428 272.047 149.154C267.287 143.88 249.004 140.94 242.081 145.84Z" fill="white" stroke="#263238" stroke-width="1.01326" stroke-linecap="round" stroke-linejoin="round"/>
<path d="M238.572 132.406C238.572 132.406 239.009 138.909 239.881 148.673C240.753 158.437 244.262 166.151 249.952 170.624C255.642 175.096 263.797 177.537 265.959 175.096C268.121 172.655 270.72 162.499 269.752 156.388C268.785 150.276 267.59 137.287 267.59 137.287L238.572 132.406Z" fill="white" stroke="#263238" stroke-width="1.01326" stroke-linecap="round" stroke-linejoin="round"/>
<g style="mix-blend-mode:multiply" opacity="0.5">
<path d="M268.918 148.78C268.273 143.096 267.685 137.287 267.685 137.287L238.572 132.406C238.572 132.406 239.009 138.909 239.881 148.673C240.211 153.188 241.319 157.623 243.162 161.804L268.918 148.78Z" fill="#414042"/>
</g>
<path d="M229.089 122.677C229.089 122.677 222.603 116.584 221.294 121.858C219.986 127.132 225.201 135.292 232.56 133.243V128.379L229.089 122.677Z" fill="white" stroke="#263238" stroke-width="1.01326" stroke-linecap="round" stroke-linejoin="round"/>
<path opacity="0.5" d="M229.089 122.677C229.089 122.677 222.603 116.584 221.294 121.858C219.986 127.132 225.201 135.292 232.56 133.243V128.379L229.089 122.677Z" fill="#414042" stroke="#263238" stroke-width="1.01326" stroke-linecap="round" stroke-linejoin="round"/>
<path d="M223.4 111.666C223.4 111.666 234.229 138.909 243.75 144.201C253.271 149.492 272.313 154.356 277.51 135.292C282.706 116.227 268.861 88.5215 264.101 80.379C259.34 72.2365 241.588 69.8133 230.341 77.938C219.094 86.0627 216.534 93.7598 223.4 111.666Z" fill="white" stroke="#263238" stroke-width="1.01326" stroke-linecap="round" stroke-linejoin="round"/>
<g style="mix-blend-mode:multiply" opacity="0.5">
<path d="M235.405 88.5928C240.001 86.5956 244.984 85.5042 250.047 85.3857L260.838 76.8512C253.745 71.7198 239.805 71.0962 230.398 77.9024C219.132 86.0449 216.534 93.7598 223.456 111.666C223.456 111.666 234.286 138.909 243.807 144.201C247.184 146.066 250.841 147.441 254.655 148.281C250.066 142.722 243.01 133.884 240.772 129.377C237.359 122.499 235.898 108.299 231.498 100.049C227.098 91.7999 228.577 91.7999 235.405 88.5928Z" fill="#414042"/>
</g>
<path d="M258.088 103.524C258.088 103.524 262.413 110.847 260.687 112.432C260.102 112.907 259.396 113.231 258.639 113.375C257.882 113.518 257.098 113.476 256.363 113.252" stroke="#263238" stroke-width="1.01326" stroke-linecap="round" stroke-linejoin="round"/>
<path d="M238.174 102.312C238.174 102.312 239.047 97.4301 245.533 97.4301" stroke="#263238" stroke-width="2.02651" stroke-linecap="round" stroke-linejoin="round"/>
<path d="M242.081 107.194C242.081 107.194 246.842 109.225 248.567 104.753" stroke="#263238" stroke-width="1.01326" stroke-linecap="round" stroke-linejoin="round"/>
<path d="M262.849 103.933C262.849 103.933 267.609 105.965 269.354 101.492" stroke="#263238" stroke-width="1.01326" stroke-linecap="round" stroke-linejoin="round"/>
<path d="M258.904 94.5972C260.06 93.4905 261.621 92.8393 263.271 92.7764C264.92 92.7135 266.532 93.2436 267.78 94.2587" stroke="#263238" stroke-width="2.02651" stroke-linecap="round" stroke-linejoin="round"/>
<path d="M278.401 119.63C273.356 117.564 261.332 113.002 257.311 114.909C252.114 117.35 238.686 125.902 238.686 132.406C238.686 132.406 230.038 121.43 230.038 117.35C230.038 113.27 233.49 112.005 230.474 106.784C227.458 101.564 223.096 101.083 224.405 94.9892C225.6 89.3411 237.567 83.3545 243.371 82.5171C246.996 85.399 251.614 86.9441 256.363 86.8645C265.846 86.8645 273.678 81.1452 273.678 74.0539C273.678 66.9626 265.921 61.261 256.363 61.261C254.235 61.2518 252.118 61.5462 250.085 62.1341C241.019 61.5105 239.293 67.8178 233.015 71.2744C226.738 74.7309 222.793 84.9224 222.793 84.9224H223.058C218.469 91.2297 218.487 98.8377 223.475 111.648C223.475 111.648 234.305 138.891 243.826 144.183C253.347 149.474 272.389 154.339 277.585 135.274C278.848 130.147 279.124 124.849 278.401 119.63Z" fill="#263238" stroke="#263238" stroke-width="1.01326" stroke-linecap="round" stroke-linejoin="round"/>
<path d="M268.065 119.221C268.065 119.221 261.578 127.755 254.219 122.071" stroke="white" stroke-width="1.01326" stroke-linecap="round" stroke-linejoin="round"/>
<path d="M205.723 291.656C208.294 293.18 210.555 295.123 212.399 297.394C214.659 300.3 217.077 303.095 219.644 305.768C219.644 305.768 225.751 306.284 225.201 308.904C224.651 311.523 223.532 313.073 220.744 313.073C217.956 313.073 211.849 307.852 211.849 307.852L202.954 320.912C202.954 320.912 194.609 315.175 191.821 307.852L205.723 291.656Z" fill="white" stroke="#263238" stroke-width="1.01326" stroke-linecap="round" stroke-linejoin="round"/>
<path d="M254.124 199.149C298.369 199.149 334.237 165.454 334.237 123.889C334.237 82.3237 298.369 48.6286 254.124 48.6286C209.88 48.6286 174.012 82.3237 174.012 123.889C174.012 165.454 209.88 199.149 254.124 199.149Z" stroke="#263238" stroke-width="2.02651" stroke-linecap="round" stroke-linejoin="round"/>
<path d="M326.461 109.261C326.461 109.261 320.885 108.726 319.785 111.862C318.685 114.998 316.997 118.134 316.997 120.236C316.997 122.339 317.547 123.889 320.335 124.406C323.123 124.922 324.792 121.27 324.792 121.27L326.461 109.261Z" fill="white" stroke="#263238" stroke-width="1.01326" stroke-linecap="round" stroke-linejoin="round"/>
<path d="M327.561 105.59C327.561 105.59 324.792 119.702 324.792 123.889C324.913 127.108 326.078 130.216 328.13 132.797C329.144 133.878 330.512 134.611 332.018 134.882L334.806 131.746C334.806 131.746 331.468 135.933 335.906 141.154C340.344 146.374 343.701 145.858 347.589 144.29C351.477 142.722 352.596 140.637 350.927 134.882C349.258 129.127 348.158 119.72 347.039 113.982C345.92 108.245 342.032 106.143 339.813 106.143C337.594 106.143 331.506 104.023 327.561 105.59Z" fill="white" stroke="#263238" stroke-width="1.01326" stroke-linecap="round" stroke-linejoin="round"/>
<path d="M325.531 126.829C325.531 126.829 324.545 123.586 328.737 123.123C332.928 122.659 339.851 121.965 339.851 121.965" stroke="#263238" stroke-width="0.506629" stroke-linecap="round" stroke-linejoin="round"/>
<path d="M326.024 118.49C326.024 118.49 335.64 116.156 339.111 116.619" stroke="#263238" stroke-width="0.506629" stroke-linecap="round" stroke-linejoin="round"/>
<path d="M326.764 111.987C330.352 111.388 333.988 111.078 337.632 111.06" stroke="#263238" stroke-width="0.506629" stroke-linecap="round" stroke-linejoin="round"/>
<path d="M329.969 129.377C330.73 130.02 331.643 130.483 332.633 130.728C333.623 130.972 334.66 130.992 335.659 130.784" stroke="#263238" stroke-width="0.506629" stroke-linecap="round" stroke-linejoin="round"/>
</g>
<defs>
<clipPath id="clip0_2_4">
<rect width="743" height="575" fill="white"/>
</clipPath>
</defs>
</svg>
